<svg width="40" height="40" viewBox="0 0 40 40" fill="none" xmlns="http://www.w3.org/2000/svg">
<path d="M3.75 20C3.75 28.9742 11.0258 36.25 20 36.25C28.9742 36.25 36.25 28.9742 36.25 20C36.25 11.0258 28.9742 3.75 20 3.75C11.0258 3.75 3.75 11.0258 3.75 20ZM23.4375 14.2078V25.7922C23.4373 26.0296 23.3695 26.262 23.2421 26.4623C23.1147 26.6626 22.9328 26.8224 22.7179 26.9231C22.5029 27.0239 22.2637 27.0613 22.0282 27.031C21.7928 27.0008 21.5708 26.9041 21.3883 26.7523L14.4281 20.9609C14.2871 20.8436 14.1737 20.6967 14.0958 20.5307C14.0179 20.3646 13.9776 20.1834 13.9776 20C13.9776 19.8166 14.0179 19.6354 14.0958 19.4693C14.1737 19.3033 14.2871 19.1564 14.4281 19.0391L21.3883 13.2477C21.5708 13.0959 21.7928 12.9992 22.0282 12.969C22.2637 12.9387 22.5029 12.9761 22.7179 13.0769C22.9328 13.1776 23.1147 13.3374 23.2421 13.5377C23.3695 13.738 23.4373 13.9704 23.4375 14.2078Z" fill="white"/>
</svg>
