<svg width="60" height="60" viewBox="0 0 60 60" fill="none" xmlns="http://www.w3.org/2000/svg">
<path d="M27.5 25.375L25.25 23.1875C24.75 22.7292 24.1558 22.51 23.4675 22.53C22.7808 22.5517 22.2083 22.7917 21.75 23.25C21.2917 23.7083 21.0625 24.2917 21.0625 25C21.0625 25.7083 21.2917 26.2917 21.75 26.75L28.25 33.25C28.7083 33.7083 29.2917 33.9375 30 33.9375C30.7083 33.9375 31.2917 33.7083 31.75 33.25L38.3125 26.6875C38.7708 26.2292 38.99 25.6558 38.97 24.9675C38.9483 24.2808 38.7083 23.7083 38.25 23.25C37.7917 22.7917 37.2083 22.5517 36.5 22.53C35.7917 22.51 35.2083 22.75 34.75 23.25L32.5 25.375V17.4375C32.5 16.7292 32.2608 16.1458 31.7825 15.6875C31.3025 15.2292 30.7083 15 30 15C29.2917 15 28.6983 15.2392 28.22 15.7175C27.74 16.1975 27.5 16.7917 27.5 17.5V25.375ZM20 42.5H40.0625C40.7708 42.5 41.3542 42.26 41.8125 41.78C42.2708 41.3017 42.5 40.7083 42.5 40C42.5 39.2917 42.26 38.6975 41.78 38.2175C41.3017 37.7392 40.7083 37.5 40 37.5H19.9375C19.2292 37.5 18.6458 37.7392 18.1875 38.2175C17.7292 38.6975 17.5 39.2917 17.5 40C17.5 40.7083 17.7392 41.3017 18.2175 41.78C18.6975 42.26 19.2917 42.5 20 42.5ZM30 55C26.5417 55 23.2917 54.3433 20.25 53.03C17.2083 51.7183 14.5625 49.9375 12.3125 47.6875C10.0625 45.4375 8.28167 42.7917 6.97 39.75C5.65667 36.7083 5 33.4583 5 30C5 26.5417 5.65667 23.2917 6.97 20.25C8.28167 17.2083 10.0625 14.5625 12.3125 12.3125C14.5625 10.0625 17.2083 8.28083 20.25 6.9675C23.2917 5.65583 26.5417 5 30 5C33.4583 5 36.7083 5.65583 39.75 6.9675C42.7917 8.28083 45.4375 10.0625 47.6875 12.3125C49.9375 14.5625 51.7183 17.2083 53.03 20.25C54.3433 23.2917 55 26.5417 55 30C55 33.4583 54.3433 36.7083 53.03 39.75C51.7183 42.7917 49.9375 45.4375 47.6875 47.6875C45.4375 49.9375 42.7917 51.7183 39.75 53.03C36.7083 54.3433 33.4583 55 30 55Z" fill="black"/>
</svg>
