<svg width="36" height="36" viewBox="0 0 36 36" fill="none" xmlns="http://www.w3.org/2000/svg">
<g clip-path="url(#clip0_15_4236)">
<path fill-rule="evenodd" clip-rule="evenodd" d="M18.0004 1.08838C13.8459 1.09053 9.82769 2.56196 6.66419 5.23956C3.50068 7.91715 1.3982 11.6263 0.732674 15.7038C0.067151 19.7813 0.881982 23.9612 3.03148 27.4961C5.18098 31.0311 8.52498 33.6905 12.4655 34.999C13.3349 35.1603 13.6623 34.6215 13.6623 34.1634C13.6623 33.7052 13.6449 32.3769 13.6391 30.9247C8.77079 31.9764 7.74207 28.8703 7.74207 28.8703C6.94806 26.8534 5.80052 26.3232 5.80052 26.3232C4.21251 25.2456 5.91934 25.2658 5.91934 25.2658C7.67832 25.3897 8.60273 27.0609 8.60273 27.0609C10.1618 29.7203 12.6974 28.951 13.6942 28.5015C13.8507 27.3749 14.3057 26.6085 14.807 26.1734C10.9181 25.7354 6.83214 24.2429 6.83214 17.5755C6.80804 15.8463 7.45337 14.1741 8.6346 12.9048C8.45494 12.4668 7.85508 10.6977 8.80557 8.29463C8.80557 8.29463 10.2748 7.82786 13.6189 10.0782C16.4872 9.29825 19.5136 9.29825 22.3819 10.0782C25.7231 7.82786 27.1894 8.29463 27.1894 8.29463C28.1428 10.6919 27.5429 12.4611 27.3633 12.9048C28.5483 14.1743 29.1949 15.8494 29.1686 17.5812C29.1686 24.2631 25.074 25.7354 21.1793 26.1648C21.8052 26.7064 22.3645 27.7639 22.3645 29.389C22.3645 31.7171 22.3442 33.59 22.3442 34.1634C22.3442 34.6273 22.6601 35.169 23.5468 34.999C27.4878 33.6904 30.8322 31.0304 32.9816 27.4949C35.1311 23.9594 35.9455 19.7788 35.2792 15.701C34.6129 11.6231 32.5094 7.9139 29.3449 5.23676C26.1803 2.55963 22.1611 1.08917 18.0062 1.08838H18.0004Z" fill="white"/>
<path d="M7.12731 26.0728C7.08964 26.1592 6.95054 26.1852 6.83753 26.1247C6.72451 26.0641 6.64048 25.9518 6.68105 25.8625C6.72162 25.7731 6.85782 25.7501 6.97083 25.8106C7.08385 25.8711 7.17078 25.9864 7.12731 26.0728Z" fill="white"/>
<path d="M7.8373 26.8591C7.77728 26.8892 7.70862 26.8976 7.64307 26.8829C7.57753 26.8681 7.51916 26.8312 7.47797 26.7784C7.36495 26.6574 7.34176 26.4903 7.42869 26.4154C7.51563 26.3405 7.67212 26.3751 7.78514 26.4961C7.89815 26.6171 7.92423 26.7842 7.8373 26.8591Z" fill="white"/>
<path d="M8.52702 27.8591C8.4198 27.934 8.23723 27.8591 8.1358 27.7092C8.10776 27.6824 8.08546 27.6501 8.07022 27.6145C8.05498 27.5788 8.04712 27.5405 8.04712 27.5018C8.04712 27.463 8.05498 27.4247 8.07022 27.3891C8.08546 27.3534 8.10776 27.3212 8.1358 27.2943C8.24302 27.2223 8.42559 27.2943 8.52702 27.4413C8.62844 27.5882 8.63134 27.7841 8.52702 27.8591Z" fill="white"/>
<path d="M9.463 28.827C9.36738 28.9336 9.17322 28.9048 9.01384 28.7608C8.85446 28.6167 8.81678 28.4208 8.91241 28.317C9.00804 28.2133 9.20219 28.2421 9.36737 28.3833C9.53255 28.5245 9.56443 28.7233 9.463 28.827Z" fill="white"/>
<path d="M10.7757 29.3922C10.7322 29.5276 10.5351 29.5881 10.3381 29.5305C10.141 29.4729 10.0106 29.3115 10.0483 29.1732C10.086 29.0349 10.2859 28.9715 10.4859 29.0349C10.6858 29.0983 10.8133 29.251 10.7757 29.3922Z" fill="white"/>
<path d="M12.2073 29.4899C12.2073 29.6311 12.045 29.7521 11.8363 29.755C11.6277 29.7579 11.4567 29.6427 11.4567 29.5015C11.4567 29.3603 11.619 29.2393 11.8276 29.2364C12.0363 29.2335 12.2073 29.3459 12.2073 29.4899Z" fill="white"/>
<path d="M13.5403 29.2682C13.5663 29.4094 13.4215 29.5564 13.2128 29.591C13.0042 29.6255 12.8216 29.542 12.7955 29.4037C12.7694 29.2654 12.9201 29.1155 13.123 29.0781C13.3258 29.0406 13.5142 29.1271 13.5403 29.2682Z" fill="white"/>
</g>
<defs>
<clipPath id="clip0_15_4236">
<rect width="35" height="35" fill="white" transform="translate(0.5 0.359375)"/>
</clipPath>
</defs>
</svg>
