<svg width="1920" height="1080" viewBox="0 0 1920 1080" fill="none" xmlns="http://www.w3.org/2000/svg">
<g opacity="0.7">
<mask id="mask0_34_4301" style="mask-type:alpha" maskUnits="userSpaceOnUse" x="-447" y="-94" width="2442" height="1298">
<rect x="-447" y="18.5334" width="2388.13" height="1186.78" transform="rotate(-2.70089 -447 18.5334)" fill="url(#paint0_linear_34_4301)"/>
</mask>
<g mask="url(#mask0_34_4301)">
<circle r="1.44203" transform="matrix(4.37114e-08 1 1 -4.37114e-08 398.03 192.964)" fill="#F3D503"/>
<circle r="1.44203" transform="matrix(4.37114e-08 1 1 -4.37114e-08 398.03 247.761)" fill="#F3D503"/>
<circle r="1.44203" transform="matrix(4.37114e-08 1 1 -4.37114e-08 398.029 83.3693)" fill="#F3D503"/>
<circle r="1.44203" transform="matrix(4.37114e-08 1 1 -4.37114e-08 398.029 138.166)" fill="#F3D503"/>
<circle r="1.44203" transform="matrix(4.37114e-08 1 1 -4.37114e-08 398.029 28.5722)" fill="#F3D503"/>
<circle r="1.44203" transform="matrix(4.37114e-08 1 1 -4.37114e-08 452.827 192.964)" fill="#F3D503"/>
<circle r="1.44203" transform="matrix(4.37114e-08 1 1 -4.37114e-08 452.827 247.761)" fill="#F3D503"/>
<circle r="1.44203" transform="matrix(4.37114e-08 1 1 -4.37114e-08 452.827 83.3693)" fill="#F3D503"/>
<circle r="1.44203" transform="matrix(4.37114e-08 1 1 -4.37114e-08 452.827 138.166)" fill="#F3D503"/>
<circle r="1.44203" transform="matrix(4.37114e-08 1 1 -4.37114e-08 452.827 28.5722)" fill="#F3D503"/>
<circle r="1.44203" transform="matrix(4.37114e-08 1 1 -4.37114e-08 507.624 192.964)" fill="#F3D503"/>
<circle r="1.44203" transform="matrix(4.37114e-08 1 1 -4.37114e-08 507.624 247.761)" fill="#F3D503"/>
<circle r="1.44203" transform="matrix(4.37114e-08 1 1 -4.37114e-08 507.624 83.3693)" fill="#F3D503"/>
<circle r="1.44203" transform="matrix(4.37114e-08 1 1 -4.37114e-08 507.624 138.166)" fill="#F3D503"/>
<circle r="1.44203" transform="matrix(4.37114e-08 1 1 -4.37114e-08 507.624 28.5722)" fill="#F3D503"/>
<circle r="1.44203" transform="matrix(4.37114e-08 1 1 -4.37114e-08 562.422 192.964)" fill="#F3D503"/>
<circle r="1.44203" transform="matrix(4.37114e-08 1 1 -4.37114e-08 562.422 247.761)" fill="#F3D503"/>
<circle r="1.44203" transform="matrix(4.37114e-08 1 1 -4.37114e-08 562.422 83.3693)" fill="#F3D503"/>
<circle r="1.44203" transform="matrix(4.37114e-08 1 1 -4.37114e-08 562.422 138.166)" fill="#F3D503"/>
<circle r="1.44203" transform="matrix(4.37114e-08 1 1 -4.37114e-08 562.422 28.5722)" fill="#F3D503"/>
<circle r="1.44203" transform="matrix(4.37114e-08 1 1 -4.37114e-08 398.03 631.341)" fill="#F3D503"/>
<circle r="1.44203" transform="matrix(4.37114e-08 1 1 -4.37114e-08 398.03 686.138)" fill="#F3D503"/>
<circle r="1.44203" transform="matrix(4.37114e-08 1 1 -4.37114e-08 398.03 521.746)" fill="#F3D503"/>
<circle r="1.44203" transform="matrix(4.37114e-08 1 1 -4.37114e-08 398.03 576.544)" fill="#F3D503"/>
<circle r="1.44203" transform="matrix(4.37114e-08 1 1 -4.37114e-08 398.03 412.152)" fill="#F3D503"/>
<circle r="1.44203" transform="matrix(4.37114e-08 1 1 -4.37114e-08 398.03 466.949)" fill="#F3D503"/>
<circle r="1.44203" transform="matrix(4.37114e-08 1 1 -4.37114e-08 398.03 302.558)" fill="#F3D503"/>
<circle r="1.44203" transform="matrix(4.37114e-08 1 1 -4.37114e-08 398.03 357.355)" fill="#F3D503"/>
<circle r="1.44203" transform="matrix(4.37114e-08 1 1 -4.37114e-08 452.827 631.341)" fill="#F3D503"/>
<circle r="1.44203" transform="matrix(4.37114e-08 1 1 -4.37114e-08 452.827 686.138)" fill="#F3D503"/>
<circle r="1.44203" transform="matrix(4.37114e-08 1 1 -4.37114e-08 452.827 521.746)" fill="#F3D503"/>
<circle r="1.44203" transform="matrix(4.37114e-08 1 1 -4.37114e-08 452.827 576.544)" fill="#F3D503"/>
<circle r="1.44203" transform="matrix(4.37114e-08 1 1 -4.37114e-08 452.827 412.152)" fill="#F3D503"/>
<circle r="1.44203" transform="matrix(4.37114e-08 1 1 -4.37114e-08 452.827 466.949)" fill="#F3D503"/>
<circle r="1.44203" transform="matrix(4.37114e-08 1 1 -4.37114e-08 452.827 302.558)" fill="#F3D503"/>
<circle r="1.44203" transform="matrix(4.37114e-08 1 1 -4.37114e-08 452.827 357.355)" fill="#F3D503"/>
<circle r="1.44203" transform="matrix(4.37114e-08 1 1 -4.37114e-08 507.624 631.341)" fill="#F3D503"/>
<circle r="1.44203" transform="matrix(4.37114e-08 1 1 -4.37114e-08 507.624 686.138)" fill="#F3D503"/>
<circle r="1.44203" transform="matrix(4.37114e-08 1 1 -4.37114e-08 507.624 521.746)" fill="#F3D503"/>
<circle r="1.44203" transform="matrix(4.37114e-08 1 1 -4.37114e-08 507.624 576.544)" fill="#F3D503"/>
<circle r="1.44203" transform="matrix(4.37114e-08 1 1 -4.37114e-08 507.624 412.152)" fill="#F3D503"/>
<circle r="1.44203" transform="matrix(4.37114e-08 1 1 -4.37114e-08 507.624 466.949)" fill="#F3D503"/>
<circle r="1.44203" transform="matrix(4.37114e-08 1 1 -4.37114e-08 507.624 302.558)" fill="#F3D503"/>
<circle r="1.44203" transform="matrix(4.37114e-08 1 1 -4.37114e-08 507.624 357.355)" fill="#F3D503"/>
<circle r="1.44203" transform="matrix(4.37114e-08 1 1 -4.37114e-08 562.422 631.341)" fill="#F3D503"/>
<circle r="1.44203" transform="matrix(4.37114e-08 1 1 -4.37114e-08 562.422 686.138)" fill="#F3D503"/>
<circle r="1.44203" transform="matrix(4.37114e-08 1 1 -4.37114e-08 562.422 521.746)" fill="#F3D503"/>
<circle r="1.44203" transform="matrix(4.37114e-08 1 1 -4.37114e-08 562.422 576.544)" fill="#F3D503"/>
<circle r="1.44203" transform="matrix(4.37114e-08 1 1 -4.37114e-08 562.422 412.152)" fill="#F3D503"/>
<circle r="1.44203" transform="matrix(4.37114e-08 1 1 -4.37114e-08 562.422 466.949)" fill="#F3D503"/>
<circle r="1.44203" transform="matrix(4.37114e-08 1 1 -4.37114e-08 562.422 302.558)" fill="#F3D503"/>
<circle r="1.44203" transform="matrix(4.37114e-08 1 1 -4.37114e-08 562.422 357.355)" fill="#F3D503"/>
<circle r="1.44203" transform="matrix(4.37114e-08 1 1 -4.37114e-08 178.84 192.964)" fill="#F3D503"/>
<circle r="1.44203" transform="matrix(4.37114e-08 1 1 -4.37114e-08 178.84 247.761)" fill="#F3D503"/>
<circle r="1.44203" transform="matrix(4.37114e-08 1 1 -4.37114e-08 178.84 83.3693)" fill="#F3D503"/>
<circle r="1.44203" transform="matrix(4.37114e-08 1 1 -4.37114e-08 178.84 138.166)" fill="#F3D503"/>
<circle r="1.44203" transform="matrix(4.37114e-08 1 1 -4.37114e-08 178.84 28.5722)" fill="#F3D503"/>
<circle r="1.44203" transform="matrix(4.37114e-08 1 1 -4.37114e-08 233.638 192.964)" fill="#F3D503"/>
<circle r="1.44203" transform="matrix(4.37114e-08 1 1 -4.37114e-08 233.638 247.761)" fill="#F3D503"/>
<circle r="1.44203" transform="matrix(4.37114e-08 1 1 -4.37114e-08 233.638 83.3693)" fill="#F3D503"/>
<circle r="1.44203" transform="matrix(4.37114e-08 1 1 -4.37114e-08 233.638 138.166)" fill="#F3D503"/>
<circle r="1.44203" transform="matrix(4.37114e-08 1 1 -4.37114e-08 233.638 28.5722)" fill="#F3D503"/>
<circle r="1.44203" transform="matrix(4.37114e-08 1 1 -4.37114e-08 288.435 192.964)" fill="#F3D503"/>
<circle r="1.44203" transform="matrix(4.37114e-08 1 1 -4.37114e-08 288.435 247.761)" fill="#F3D503"/>
<circle r="1.44203" transform="matrix(4.37114e-08 1 1 -4.37114e-08 288.435 83.3693)" fill="#F3D503"/>
<circle r="1.44203" transform="matrix(4.37114e-08 1 1 -4.37114e-08 288.435 138.166)" fill="#F3D503"/>
<circle r="1.44203" transform="matrix(4.37114e-08 1 1 -4.37114e-08 288.435 28.5722)" fill="#F3D503"/>
<circle r="1.44203" transform="matrix(4.37114e-08 1 1 -4.37114e-08 343.232 192.964)" fill="#F3D503"/>
<circle r="1.44203" transform="matrix(4.37114e-08 1 1 -4.37114e-08 343.232 247.761)" fill="#F3D503"/>
<circle r="1.44203" transform="matrix(4.37114e-08 1 1 -4.37114e-08 343.232 83.3693)" fill="#F3D503"/>
<circle r="1.44203" transform="matrix(4.37114e-08 1 1 -4.37114e-08 343.232 138.166)" fill="#F3D503"/>
<circle r="1.44203" transform="matrix(4.37114e-08 1 1 -4.37114e-08 343.232 28.5722)" fill="#F3D503"/>
<circle r="1.44203" transform="matrix(4.37114e-08 1 1 -4.37114e-08 178.84 631.341)" fill="#F3D503"/>
<circle r="1.44203" transform="matrix(4.37114e-08 1 1 -4.37114e-08 178.84 686.138)" fill="#F3D503"/>
<circle r="1.44203" transform="matrix(4.37114e-08 1 1 -4.37114e-08 178.841 521.746)" fill="#F3D503"/>
<circle r="1.44203" transform="matrix(4.37114e-08 1 1 -4.37114e-08 178.841 576.544)" fill="#F3D503"/>
<circle r="1.44203" transform="matrix(4.37114e-08 1 1 -4.37114e-08 178.841 412.152)" fill="#F3D503"/>
<circle r="1.44203" transform="matrix(4.37114e-08 1 1 -4.37114e-08 178.841 466.949)" fill="#F3D503"/>
<circle r="1.44203" transform="matrix(4.37114e-08 1 1 -4.37114e-08 178.84 302.558)" fill="#F3D503"/>
<circle r="1.44203" transform="matrix(4.37114e-08 1 1 -4.37114e-08 178.841 357.355)" fill="#F3D503"/>
<circle r="1.44203" transform="matrix(4.37114e-08 1 1 -4.37114e-08 233.638 631.341)" fill="#F3D503"/>
<circle r="1.44203" transform="matrix(4.37114e-08 1 1 -4.37114e-08 233.638 686.138)" fill="#F3D503"/>
<circle r="1.44203" transform="matrix(4.37114e-08 1 1 -4.37114e-08 233.638 521.746)" fill="#F3D503"/>
<circle r="1.44203" transform="matrix(4.37114e-08 1 1 -4.37114e-08 233.638 576.544)" fill="#F3D503"/>
<circle r="1.44203" transform="matrix(4.37114e-08 1 1 -4.37114e-08 233.638 412.152)" fill="#F3D503"/>
<circle r="1.44203" transform="matrix(4.37114e-08 1 1 -4.37114e-08 233.638 466.949)" fill="#F3D503"/>
<circle r="1.44203" transform="matrix(4.37114e-08 1 1 -4.37114e-08 233.638 302.558)" fill="#F3D503"/>
<circle r="1.44203" transform="matrix(4.37114e-08 1 1 -4.37114e-08 233.638 357.355)" fill="#F3D503"/>
<circle r="1.44203" transform="matrix(4.37114e-08 1 1 -4.37114e-08 288.435 631.341)" fill="#F3D503"/>
<circle r="1.44203" transform="matrix(4.37114e-08 1 1 -4.37114e-08 288.435 686.138)" fill="#F3D503"/>
<circle r="1.44203" transform="matrix(4.37114e-08 1 1 -4.37114e-08 288.435 521.746)" fill="#F3D503"/>
<circle r="1.44203" transform="matrix(4.37114e-08 1 1 -4.37114e-08 288.435 576.544)" fill="#F3D503"/>
<circle r="1.44203" transform="matrix(4.37114e-08 1 1 -4.37114e-08 288.435 412.152)" fill="#F3D503"/>
<circle r="1.44203" transform="matrix(4.37114e-08 1 1 -4.37114e-08 288.435 466.949)" fill="#F3D503"/>
<circle r="1.44203" transform="matrix(4.37114e-08 1 1 -4.37114e-08 288.435 302.558)" fill="#F3D503"/>
<circle r="1.44203" transform="matrix(4.37114e-08 1 1 -4.37114e-08 288.435 357.355)" fill="#F3D503"/>
<circle r="1.44203" transform="matrix(4.37114e-08 1 1 -4.37114e-08 343.232 631.341)" fill="#F3D503"/>
<circle r="1.44203" transform="matrix(4.37114e-08 1 1 -4.37114e-08 343.232 686.138)" fill="#F3D503"/>
<circle r="1.44203" transform="matrix(4.37114e-08 1 1 -4.37114e-08 343.232 521.746)" fill="#F3D503"/>
<circle r="1.44203" transform="matrix(4.37114e-08 1 1 -4.37114e-08 343.232 576.544)" fill="#F3D503"/>
<circle r="1.44203" transform="matrix(4.37114e-08 1 1 -4.37114e-08 343.232 412.152)" fill="#F3D503"/>
<circle r="1.44203" transform="matrix(4.37114e-08 1 1 -4.37114e-08 343.232 466.949)" fill="#F3D503"/>
<circle r="1.44203" transform="matrix(4.37114e-08 1 1 -4.37114e-08 343.232 302.558)" fill="#F3D503"/>
<circle r="1.44203" transform="matrix(4.37114e-08 1 1 -4.37114e-08 343.232 357.355)" fill="#F3D503"/>
<circle r="1.44203" transform="matrix(4.37114e-08 1 1 -4.37114e-08 836.407 192.964)" fill="#F3D503"/>
<circle r="1.44203" transform="matrix(4.37114e-08 1 1 -4.37114e-08 836.407 247.761)" fill="#F3D503"/>
<circle r="1.44203" transform="matrix(4.37114e-08 1 1 -4.37114e-08 836.407 83.3693)" fill="#F3D503"/>
<circle r="1.44203" transform="matrix(4.37114e-08 1 1 -4.37114e-08 836.407 138.166)" fill="#F3D503"/>
<circle r="1.44203" transform="matrix(4.37114e-08 1 1 -4.37114e-08 836.407 28.5722)" fill="#F3D503"/>
<circle r="1.44203" transform="matrix(4.37114e-08 1 1 -4.37114e-08 891.205 192.964)" fill="#F3D503"/>
<circle r="1.44203" transform="matrix(4.37114e-08 1 1 -4.37114e-08 891.205 247.761)" fill="#F3D503"/>
<circle r="1.44203" transform="matrix(4.37114e-08 1 1 -4.37114e-08 891.205 83.3693)" fill="#F3D503"/>
<circle r="1.44203" transform="matrix(4.37114e-08 1 1 -4.37114e-08 891.205 138.166)" fill="#F3D503"/>
<circle r="1.44203" transform="matrix(4.37114e-08 1 1 -4.37114e-08 891.205 28.5722)" fill="#F3D503"/>
<circle r="1.44203" transform="matrix(4.37114e-08 1 1 -4.37114e-08 946.002 192.964)" fill="#F3D503"/>
<circle r="1.44203" transform="matrix(4.37114e-08 1 1 -4.37114e-08 946.002 247.761)" fill="#F3D503"/>
<circle r="1.44203" transform="matrix(4.37114e-08 1 1 -4.37114e-08 946.002 83.3693)" fill="#F3D503"/>
<circle r="1.44203" transform="matrix(4.37114e-08 1 1 -4.37114e-08 946.002 138.166)" fill="#F3D503"/>
<circle r="1.44203" transform="matrix(4.37114e-08 1 1 -4.37114e-08 946.002 28.5722)" fill="#F3D503"/>
<circle r="1.44203" transform="matrix(4.37114e-08 1 1 -4.37114e-08 1000.8 192.964)" fill="#F3D503"/>
<circle r="1.44203" transform="matrix(4.37114e-08 1 1 -4.37114e-08 1000.8 247.761)" fill="#F3D503"/>
<circle r="1.44203" transform="matrix(4.37114e-08 1 1 -4.37114e-08 1000.8 83.3693)" fill="#F3D503"/>
<circle r="1.44203" transform="matrix(4.37114e-08 1 1 -4.37114e-08 1000.8 138.166)" fill="#F3D503"/>
<circle r="1.44203" transform="matrix(4.37114e-08 1 1 -4.37114e-08 1000.8 28.5722)" fill="#F3D503"/>
<circle r="1.44203" transform="matrix(4.37114e-08 1 1 -4.37114e-08 836.407 631.341)" fill="#F3D503"/>
<circle r="1.44203" transform="matrix(4.37114e-08 1 1 -4.37114e-08 836.407 686.138)" fill="#F3D503"/>
<circle r="1.44203" transform="matrix(4.37114e-08 1 1 -4.37114e-08 836.407 521.746)" fill="#F3D503"/>
<circle r="1.44203" transform="matrix(4.37114e-08 1 1 -4.37114e-08 836.407 576.544)" fill="#F3D503"/>
<circle r="1.44203" transform="matrix(4.37114e-08 1 1 -4.37114e-08 836.407 412.152)" fill="#F3D503"/>
<circle r="1.44203" transform="matrix(4.37114e-08 1 1 -4.37114e-08 836.407 466.949)" fill="#F3D503"/>
<circle r="1.44203" transform="matrix(4.37114e-08 1 1 -4.37114e-08 836.407 302.558)" fill="#F3D503"/>
<circle r="1.44203" transform="matrix(4.37114e-08 1 1 -4.37114e-08 836.407 357.355)" fill="#F3D503"/>
<circle r="1.44203" transform="matrix(4.37114e-08 1 1 -4.37114e-08 891.205 631.341)" fill="#F3D503"/>
<circle r="1.44203" transform="matrix(4.37114e-08 1 1 -4.37114e-08 891.205 686.138)" fill="#F3D503"/>
<circle r="1.44203" transform="matrix(4.37114e-08 1 1 -4.37114e-08 891.205 521.746)" fill="#F3D503"/>
<circle r="1.44203" transform="matrix(4.37114e-08 1 1 -4.37114e-08 891.205 576.544)" fill="#F3D503"/>
<circle r="1.44203" transform="matrix(4.37114e-08 1 1 -4.37114e-08 891.205 412.152)" fill="#F3D503"/>
<circle r="1.44203" transform="matrix(4.37114e-08 1 1 -4.37114e-08 891.205 466.949)" fill="#F3D503"/>
<circle r="1.44203" transform="matrix(4.37114e-08 1 1 -4.37114e-08 891.205 302.558)" fill="#F3D503"/>
<circle r="1.44203" transform="matrix(4.37114e-08 1 1 -4.37114e-08 891.205 357.355)" fill="#F3D503"/>
<circle r="1.44203" transform="matrix(4.37114e-08 1 1 -4.37114e-08 946.002 631.341)" fill="#F3D503"/>
<circle r="1.44203" transform="matrix(4.37114e-08 1 1 -4.37114e-08 946.002 686.138)" fill="#F3D503"/>
<circle r="1.44203" transform="matrix(4.37114e-08 1 1 -4.37114e-08 946.002 521.746)" fill="#F3D503"/>
<circle r="1.44203" transform="matrix(4.37114e-08 1 1 -4.37114e-08 946.002 576.544)" fill="#F3D503"/>
<circle r="1.44203" transform="matrix(4.37114e-08 1 1 -4.37114e-08 946.002 412.152)" fill="#F3D503"/>
<circle r="1.44203" transform="matrix(4.37114e-08 1 1 -4.37114e-08 946.002 466.949)" fill="#F3D503"/>
<circle r="1.44203" transform="matrix(4.37114e-08 1 1 -4.37114e-08 946.002 302.558)" fill="#F3D503"/>
<circle r="1.44203" transform="matrix(4.37114e-08 1 1 -4.37114e-08 946.002 357.355)" fill="#F3D503"/>
<circle r="1.44203" transform="matrix(4.37114e-08 1 1 -4.37114e-08 1000.8 631.341)" fill="#F3D503"/>
<circle r="1.44203" transform="matrix(4.37114e-08 1 1 -4.37114e-08 1000.8 686.138)" fill="#F3D503"/>
<circle r="1.44203" transform="matrix(4.37114e-08 1 1 -4.37114e-08 1000.8 521.746)" fill="#F3D503"/>
<circle r="1.44203" transform="matrix(4.37114e-08 1 1 -4.37114e-08 1000.8 576.544)" fill="#F3D503"/>
<circle r="1.44203" transform="matrix(4.37114e-08 1 1 -4.37114e-08 1000.8 412.152)" fill="#F3D503"/>
<circle r="1.44203" transform="matrix(4.37114e-08 1 1 -4.37114e-08 1000.8 466.949)" fill="#F3D503"/>
<circle r="1.44203" transform="matrix(4.37114e-08 1 1 -4.37114e-08 1000.8 302.558)" fill="#F3D503"/>
<circle r="1.44203" transform="matrix(4.37114e-08 1 1 -4.37114e-08 1000.8 357.355)" fill="#F3D503"/>
<circle r="1.44203" transform="matrix(4.37114e-08 1 1 -4.37114e-08 617.218 192.964)" fill="#F3D503"/>
<circle r="1.44203" transform="matrix(4.37114e-08 1 1 -4.37114e-08 617.218 247.761)" fill="#F3D503"/>
<circle r="1.44203" transform="matrix(4.37114e-08 1 1 -4.37114e-08 617.218 83.3693)" fill="#F3D503"/>
<circle r="1.44203" transform="matrix(4.37114e-08 1 1 -4.37114e-08 617.218 138.166)" fill="#F3D503"/>
<circle r="1.44203" transform="matrix(4.37114e-08 1 1 -4.37114e-08 617.218 28.5722)" fill="#F3D503"/>
<circle r="1.44203" transform="matrix(4.37114e-08 1 1 -4.37114e-08 672.015 192.964)" fill="#F3D503"/>
<circle r="1.44203" transform="matrix(4.37114e-08 1 1 -4.37114e-08 672.015 247.761)" fill="#F3D503"/>
<circle r="1.44203" transform="matrix(4.37114e-08 1 1 -4.37114e-08 672.015 83.3693)" fill="#F3D503"/>
<circle r="1.44203" transform="matrix(4.37114e-08 1 1 -4.37114e-08 672.015 138.166)" fill="#F3D503"/>
<circle r="1.44203" transform="matrix(4.37114e-08 1 1 -4.37114e-08 672.015 28.5722)" fill="#F3D503"/>
<circle r="1.44203" transform="matrix(4.37114e-08 1 1 -4.37114e-08 726.813 192.964)" fill="#F3D503"/>
<circle r="1.44203" transform="matrix(4.37114e-08 1 1 -4.37114e-08 726.813 247.761)" fill="#F3D503"/>
<circle r="1.44203" transform="matrix(4.37114e-08 1 1 -4.37114e-08 726.813 83.3693)" fill="#F3D503"/>
<circle r="1.44203" transform="matrix(4.37114e-08 1 1 -4.37114e-08 726.813 138.166)" fill="#F3D503"/>
<circle r="1.44203" transform="matrix(4.37114e-08 1 1 -4.37114e-08 726.813 28.5722)" fill="#F3D503"/>
<circle r="1.44203" transform="matrix(4.37114e-08 1 1 -4.37114e-08 781.61 192.964)" fill="#F3D503"/>
<circle r="1.44203" transform="matrix(4.37114e-08 1 1 -4.37114e-08 781.61 247.761)" fill="#F3D503"/>
<circle r="1.44203" transform="matrix(4.37114e-08 1 1 -4.37114e-08 781.61 83.3693)" fill="#F3D503"/>
<circle r="1.44203" transform="matrix(4.37114e-08 1 1 -4.37114e-08 781.61 138.166)" fill="#F3D503"/>
<circle r="1.44203" transform="matrix(4.37114e-08 1 1 -4.37114e-08 781.61 28.5722)" fill="#F3D503"/>
<circle r="1.44203" transform="matrix(4.37114e-08 1 1 -4.37114e-08 617.218 631.341)" fill="#F3D503"/>
<circle r="1.44203" transform="matrix(4.37114e-08 1 1 -4.37114e-08 617.218 686.138)" fill="#F3D503"/>
<circle r="1.44203" transform="matrix(4.37114e-08 1 1 -4.37114e-08 617.218 521.746)" fill="#F3D503"/>
<circle r="1.44203" transform="matrix(4.37114e-08 1 1 -4.37114e-08 617.218 576.544)" fill="#F3D503"/>
<circle r="1.44203" transform="matrix(4.37114e-08 1 1 -4.37114e-08 617.218 412.152)" fill="#F3D503"/>
<circle r="1.44203" transform="matrix(4.37114e-08 1 1 -4.37114e-08 617.218 466.949)" fill="#F3D503"/>
<circle r="1.44203" transform="matrix(4.37114e-08 1 1 -4.37114e-08 617.218 302.558)" fill="#F3D503"/>
<circle r="1.44203" transform="matrix(4.37114e-08 1 1 -4.37114e-08 617.218 357.355)" fill="#F3D503"/>
<circle r="1.44203" transform="matrix(4.37114e-08 1 1 -4.37114e-08 672.015 631.341)" fill="#F3D503"/>
<circle r="1.44203" transform="matrix(4.37114e-08 1 1 -4.37114e-08 672.015 686.138)" fill="#F3D503"/>
<circle r="1.44203" transform="matrix(4.37114e-08 1 1 -4.37114e-08 672.015 521.746)" fill="#F3D503"/>
<circle r="1.44203" transform="matrix(4.37114e-08 1 1 -4.37114e-08 672.015 576.544)" fill="#F3D503"/>
<circle r="1.44203" transform="matrix(4.37114e-08 1 1 -4.37114e-08 672.015 412.152)" fill="#F3D503"/>
<circle r="1.44203" transform="matrix(4.37114e-08 1 1 -4.37114e-08 672.015 466.949)" fill="#F3D503"/>
<circle r="1.44203" transform="matrix(4.37114e-08 1 1 -4.37114e-08 672.015 302.558)" fill="#F3D503"/>
<circle r="1.44203" transform="matrix(4.37114e-08 1 1 -4.37114e-08 672.015 357.355)" fill="#F3D503"/>
<circle r="1.44203" transform="matrix(4.37114e-08 1 1 -4.37114e-08 726.813 631.341)" fill="#F3D503"/>
<circle r="1.44203" transform="matrix(4.37114e-08 1 1 -4.37114e-08 726.813 686.138)" fill="#F3D503"/>
<circle r="1.44203" transform="matrix(4.37114e-08 1 1 -4.37114e-08 726.813 521.746)" fill="#F3D503"/>
<circle r="1.44203" transform="matrix(4.37114e-08 1 1 -4.37114e-08 726.813 576.544)" fill="#F3D503"/>
<circle r="1.44203" transform="matrix(4.37114e-08 1 1 -4.37114e-08 726.813 412.152)" fill="#F3D503"/>
<circle r="1.44203" transform="matrix(4.37114e-08 1 1 -4.37114e-08 726.813 466.949)" fill="#F3D503"/>
<circle r="1.44203" transform="matrix(4.37114e-08 1 1 -4.37114e-08 726.813 302.558)" fill="#F3D503"/>
<circle r="1.44203" transform="matrix(4.37114e-08 1 1 -4.37114e-08 726.813 357.355)" fill="#F3D503"/>
<circle r="1.44203" transform="matrix(4.37114e-08 1 1 -4.37114e-08 781.61 631.341)" fill="#F3D503"/>
<circle r="1.44203" transform="matrix(4.37114e-08 1 1 -4.37114e-08 781.61 686.138)" fill="#F3D503"/>
<circle r="1.44203" transform="matrix(4.37114e-08 1 1 -4.37114e-08 781.61 521.746)" fill="#F3D503"/>
<circle r="1.44203" transform="matrix(4.37114e-08 1 1 -4.37114e-08 781.61 576.544)" fill="#F3D503"/>
<circle r="1.44203" transform="matrix(4.37114e-08 1 1 -4.37114e-08 781.61 412.152)" fill="#F3D503"/>
<circle r="1.44203" transform="matrix(4.37114e-08 1 1 -4.37114e-08 781.61 466.949)" fill="#F3D503"/>
<circle r="1.44203" transform="matrix(4.37114e-08 1 1 -4.37114e-08 781.61 302.558)" fill="#F3D503"/>
<circle r="1.44203" transform="matrix(4.37114e-08 1 1 -4.37114e-08 781.61 357.355)" fill="#F3D503"/>
<circle r="1.44203" transform="matrix(4.37114e-08 1 1 -4.37114e-08 398.029 1069.72)" fill="#F3D503"/>
<circle r="1.44203" transform="matrix(4.37114e-08 1 1 -4.37114e-08 398.029 960.123)" fill="#F3D503"/>
<circle r="1.44203" transform="matrix(4.37114e-08 1 1 -4.37114e-08 398.029 1014.92)" fill="#F3D503"/>
<circle r="1.44203" transform="matrix(4.37114e-08 1 1 -4.37114e-08 398.029 850.529)" fill="#F3D503"/>
<circle r="1.44203" transform="matrix(4.37114e-08 1 1 -4.37114e-08 398.029 905.326)" fill="#F3D503"/>
<circle r="1.44203" transform="matrix(4.37114e-08 1 1 -4.37114e-08 398.03 740.935)" fill="#F3D503"/>
<circle r="1.44203" transform="matrix(4.37114e-08 1 1 -4.37114e-08 398.029 795.732)" fill="#F3D503"/>
<circle r="1.44203" transform="matrix(4.37114e-08 1 1 -4.37114e-08 452.827 1069.72)" fill="#F3D503"/>
<circle r="1.44203" transform="matrix(4.37114e-08 1 1 -4.37114e-08 452.827 960.123)" fill="#F3D503"/>
<circle r="1.44203" transform="matrix(4.37114e-08 1 1 -4.37114e-08 452.827 1014.92)" fill="#F3D503"/>
<circle r="1.44203" transform="matrix(4.37114e-08 1 1 -4.37114e-08 452.827 850.529)" fill="#F3D503"/>
<circle r="1.44203" transform="matrix(4.37114e-08 1 1 -4.37114e-08 452.827 905.326)" fill="#F3D503"/>
<circle r="1.44203" transform="matrix(4.37114e-08 1 1 -4.37114e-08 452.827 740.935)" fill="#F3D503"/>
<circle r="1.44203" transform="matrix(4.37114e-08 1 1 -4.37114e-08 452.827 795.732)" fill="#F3D503"/>
<circle r="1.44203" transform="matrix(4.37114e-08 1 1 -4.37114e-08 507.624 1069.72)" fill="#F3D503"/>
<circle r="1.44203" transform="matrix(4.37114e-08 1 1 -4.37114e-08 507.624 960.124)" fill="#F3D503"/>
<circle r="1.44203" transform="matrix(4.37114e-08 1 1 -4.37114e-08 507.624 1014.92)" fill="#F3D503"/>
<circle r="1.44203" transform="matrix(4.37114e-08 1 1 -4.37114e-08 507.624 850.529)" fill="#F3D503"/>
<circle r="1.44203" transform="matrix(4.37114e-08 1 1 -4.37114e-08 507.624 905.326)" fill="#F3D503"/>
<circle r="1.44203" transform="matrix(4.37114e-08 1 1 -4.37114e-08 507.624 740.935)" fill="#F3D503"/>
<circle r="1.44203" transform="matrix(4.37114e-08 1 1 -4.37114e-08 507.624 795.732)" fill="#F3D503"/>
<circle r="1.44203" transform="matrix(4.37114e-08 1 1 -4.37114e-08 562.421 1069.72)" fill="#F3D503"/>
<circle r="1.44203" transform="matrix(4.37114e-08 1 1 -4.37114e-08 562.422 960.124)" fill="#F3D503"/>
<circle r="1.44203" transform="matrix(4.37114e-08 1 1 -4.37114e-08 562.421 1014.92)" fill="#F3D503"/>
<circle r="1.44203" transform="matrix(4.37114e-08 1 1 -4.37114e-08 562.421 850.529)" fill="#F3D503"/>
<circle r="1.44203" transform="matrix(4.37114e-08 1 1 -4.37114e-08 562.421 905.326)" fill="#F3D503"/>
<circle r="1.44203" transform="matrix(4.37114e-08 1 1 -4.37114e-08 562.422 740.935)" fill="#F3D503"/>
<circle r="1.44203" transform="matrix(4.37114e-08 1 1 -4.37114e-08 562.421 795.732)" fill="#F3D503"/>
<circle r="1.44203" transform="matrix(4.37114e-08 1 1 -4.37114e-08 178.841 1069.72)" fill="#F3D503"/>
<circle r="1.44203" transform="matrix(4.37114e-08 1 1 -4.37114e-08 178.841 960.123)" fill="#F3D503"/>
<circle r="1.44203" transform="matrix(4.37114e-08 1 1 -4.37114e-08 178.841 1014.92)" fill="#F3D503"/>
<circle r="1.44203" transform="matrix(4.37114e-08 1 1 -4.37114e-08 178.841 850.529)" fill="#F3D503"/>
<circle r="1.44203" transform="matrix(4.37114e-08 1 1 -4.37114e-08 178.841 905.326)" fill="#F3D503"/>
<circle r="1.44203" transform="matrix(4.37114e-08 1 1 -4.37114e-08 178.84 740.935)" fill="#F3D503"/>
<circle r="1.44203" transform="matrix(4.37114e-08 1 1 -4.37114e-08 178.84 795.732)" fill="#F3D503"/>
<circle r="1.44203" transform="matrix(4.37114e-08 1 1 -4.37114e-08 233.638 1069.72)" fill="#F3D503"/>
<circle r="1.44203" transform="matrix(4.37114e-08 1 1 -4.37114e-08 233.638 960.123)" fill="#F3D503"/>
<circle r="1.44203" transform="matrix(4.37114e-08 1 1 -4.37114e-08 233.638 1014.92)" fill="#F3D503"/>
<circle r="1.44203" transform="matrix(4.37114e-08 1 1 -4.37114e-08 233.638 850.529)" fill="#F3D503"/>
<circle r="1.44203" transform="matrix(4.37114e-08 1 1 -4.37114e-08 233.638 905.326)" fill="#F3D503"/>
<circle r="1.44203" transform="matrix(4.37114e-08 1 1 -4.37114e-08 233.638 740.935)" fill="#F3D503"/>
<circle r="1.44203" transform="matrix(4.37114e-08 1 1 -4.37114e-08 233.638 795.732)" fill="#F3D503"/>
<circle r="1.44203" transform="matrix(4.37114e-08 1 1 -4.37114e-08 288.435 1069.72)" fill="#F3D503"/>
<circle r="1.44203" transform="matrix(4.37114e-08 1 1 -4.37114e-08 288.435 960.123)" fill="#F3D503"/>
<circle r="1.44203" transform="matrix(4.37114e-08 1 1 -4.37114e-08 288.435 1014.92)" fill="#F3D503"/>
<circle r="1.44203" transform="matrix(4.37114e-08 1 1 -4.37114e-08 288.435 850.529)" fill="#F3D503"/>
<circle r="1.44203" transform="matrix(4.37114e-08 1 1 -4.37114e-08 288.435 905.326)" fill="#F3D503"/>
<circle r="1.44203" transform="matrix(4.37114e-08 1 1 -4.37114e-08 288.435 740.935)" fill="#F3D503"/>
<circle r="1.44203" transform="matrix(4.37114e-08 1 1 -4.37114e-08 288.435 795.732)" fill="#F3D503"/>
<circle r="1.44203" transform="matrix(4.37114e-08 1 1 -4.37114e-08 343.232 1069.72)" fill="#F3D503"/>
<circle r="1.44203" transform="matrix(4.37114e-08 1 1 -4.37114e-08 343.232 960.123)" fill="#F3D503"/>
<circle r="1.44203" transform="matrix(4.37114e-08 1 1 -4.37114e-08 343.232 1014.92)" fill="#F3D503"/>
<circle r="1.44203" transform="matrix(4.37114e-08 1 1 -4.37114e-08 343.232 850.529)" fill="#F3D503"/>
<circle r="1.44203" transform="matrix(4.37114e-08 1 1 -4.37114e-08 343.232 905.326)" fill="#F3D503"/>
<circle r="1.44203" transform="matrix(4.37114e-08 1 1 -4.37114e-08 343.232 740.935)" fill="#F3D503"/>
<circle r="1.44203" transform="matrix(4.37114e-08 1 1 -4.37114e-08 343.232 795.732)" fill="#F3D503"/>
<circle r="1.44203" transform="matrix(4.37114e-08 1 1 -4.37114e-08 836.407 1069.72)" fill="#F3D503"/>
<circle r="1.44203" transform="matrix(4.37114e-08 1 1 -4.37114e-08 836.407 960.123)" fill="#F3D503"/>
<circle r="1.44203" transform="matrix(4.37114e-08 1 1 -4.37114e-08 836.407 1014.92)" fill="#F3D503"/>
<circle r="1.44203" transform="matrix(4.37114e-08 1 1 -4.37114e-08 836.407 850.529)" fill="#F3D503"/>
<circle r="1.44203" transform="matrix(4.37114e-08 1 1 -4.37114e-08 836.407 905.326)" fill="#F3D503"/>
<circle r="1.44203" transform="matrix(4.37114e-08 1 1 -4.37114e-08 836.407 740.935)" fill="#F3D503"/>
<circle r="1.44203" transform="matrix(4.37114e-08 1 1 -4.37114e-08 836.407 795.732)" fill="#F3D503"/>
<circle r="1.44203" transform="matrix(4.37114e-08 1 1 -4.37114e-08 891.205 1069.72)" fill="#F3D503"/>
<circle r="1.44203" transform="matrix(4.37114e-08 1 1 -4.37114e-08 891.205 960.123)" fill="#F3D503"/>
<circle r="1.44203" transform="matrix(4.37114e-08 1 1 -4.37114e-08 891.205 1014.92)" fill="#F3D503"/>
<circle r="1.44203" transform="matrix(4.37114e-08 1 1 -4.37114e-08 891.205 850.529)" fill="#F3D503"/>
<circle r="1.44203" transform="matrix(4.37114e-08 1 1 -4.37114e-08 891.205 905.326)" fill="#F3D503"/>
<circle r="1.44203" transform="matrix(4.37114e-08 1 1 -4.37114e-08 891.205 740.935)" fill="#F3D503"/>
<circle r="1.44203" transform="matrix(4.37114e-08 1 1 -4.37114e-08 891.205 795.732)" fill="#F3D503"/>
<circle r="1.44203" transform="matrix(4.37114e-08 1 1 -4.37114e-08 946.002 1069.72)" fill="#F3D503"/>
<circle r="1.44203" transform="matrix(4.37114e-08 1 1 -4.37114e-08 946.002 960.123)" fill="#F3D503"/>
<circle r="1.44203" transform="matrix(4.37114e-08 1 1 -4.37114e-08 946.002 1014.92)" fill="#F3D503"/>
<circle r="1.44203" transform="matrix(4.37114e-08 1 1 -4.37114e-08 946.002 850.529)" fill="#F3D503"/>
<circle r="1.44203" transform="matrix(4.37114e-08 1 1 -4.37114e-08 946.002 905.326)" fill="#F3D503"/>
<circle r="1.44203" transform="matrix(4.37114e-08 1 1 -4.37114e-08 946.002 740.935)" fill="#F3D503"/>
<circle r="1.44203" transform="matrix(4.37114e-08 1 1 -4.37114e-08 946.002 795.732)" fill="#F3D503"/>
<circle r="1.44203" transform="matrix(4.37114e-08 1 1 -4.37114e-08 1000.8 1069.72)" fill="#F3D503"/>
<circle r="1.44203" transform="matrix(4.37114e-08 1 1 -4.37114e-08 1000.8 960.123)" fill="#F3D503"/>
<circle r="1.44203" transform="matrix(4.37114e-08 1 1 -4.37114e-08 1000.8 1014.92)" fill="#F3D503"/>
<circle r="1.44203" transform="matrix(4.37114e-08 1 1 -4.37114e-08 1000.8 850.529)" fill="#F3D503"/>
<circle r="1.44203" transform="matrix(4.37114e-08 1 1 -4.37114e-08 1000.8 905.326)" fill="#F3D503"/>
<circle r="1.44203" transform="matrix(4.37114e-08 1 1 -4.37114e-08 1000.8 740.935)" fill="#F3D503"/>
<circle r="1.44203" transform="matrix(4.37114e-08 1 1 -4.37114e-08 1000.8 795.732)" fill="#F3D503"/>
<circle r="1.44203" transform="matrix(4.37114e-08 1 1 -4.37114e-08 617.218 1069.72)" fill="#F3D503"/>
<circle r="1.44203" transform="matrix(4.37114e-08 1 1 -4.37114e-08 617.218 960.124)" fill="#F3D503"/>
<circle r="1.44203" transform="matrix(4.37114e-08 1 1 -4.37114e-08 617.218 1014.92)" fill="#F3D503"/>
<circle r="1.44203" transform="matrix(4.37114e-08 1 1 -4.37114e-08 617.218 850.529)" fill="#F3D503"/>
<circle r="1.44203" transform="matrix(4.37114e-08 1 1 -4.37114e-08 617.218 905.326)" fill="#F3D503"/>
<circle r="1.44203" transform="matrix(4.37114e-08 1 1 -4.37114e-08 617.218 740.935)" fill="#F3D503"/>
<circle r="1.44203" transform="matrix(4.37114e-08 1 1 -4.37114e-08 617.218 795.732)" fill="#F3D503"/>
<circle r="1.44203" transform="matrix(4.37114e-08 1 1 -4.37114e-08 672.015 1069.72)" fill="#F3D503"/>
<circle r="1.44203" transform="matrix(4.37114e-08 1 1 -4.37114e-08 672.015 960.124)" fill="#F3D503"/>
<circle r="1.44203" transform="matrix(4.37114e-08 1 1 -4.37114e-08 672.015 1014.92)" fill="#F3D503"/>
<circle r="1.44203" transform="matrix(4.37114e-08 1 1 -4.37114e-08 672.015 850.529)" fill="#F3D503"/>
<circle r="1.44203" transform="matrix(4.37114e-08 1 1 -4.37114e-08 672.015 905.326)" fill="#F3D503"/>
<circle r="1.44203" transform="matrix(4.37114e-08 1 1 -4.37114e-08 672.015 740.935)" fill="#F3D503"/>
<circle r="1.44203" transform="matrix(4.37114e-08 1 1 -4.37114e-08 672.015 795.732)" fill="#F3D503"/>
<circle r="1.44203" transform="matrix(4.37114e-08 1 1 -4.37114e-08 726.813 1069.72)" fill="#F3D503"/>
<circle r="1.44203" transform="matrix(4.37114e-08 1 1 -4.37114e-08 726.813 960.124)" fill="#F3D503"/>
<circle r="1.44203" transform="matrix(4.37114e-08 1 1 -4.37114e-08 726.813 1014.92)" fill="#F3D503"/>
<circle r="1.44203" transform="matrix(4.37114e-08 1 1 -4.37114e-08 726.813 850.529)" fill="#F3D503"/>
<circle r="1.44203" transform="matrix(4.37114e-08 1 1 -4.37114e-08 726.813 905.326)" fill="#F3D503"/>
<circle r="1.44203" transform="matrix(4.37114e-08 1 1 -4.37114e-08 726.813 740.935)" fill="#F3D503"/>
<circle r="1.44203" transform="matrix(4.37114e-08 1 1 -4.37114e-08 726.813 795.732)" fill="#F3D503"/>
<circle r="1.44203" transform="matrix(4.37114e-08 1 1 -4.37114e-08 781.61 1069.72)" fill="#F3D503"/>
<circle r="1.44203" transform="matrix(4.37114e-08 1 1 -4.37114e-08 781.61 960.124)" fill="#F3D503"/>
<circle r="1.44203" transform="matrix(4.37114e-08 1 1 -4.37114e-08 781.61 1014.92)" fill="#F3D503"/>
<circle r="1.44203" transform="matrix(4.37114e-08 1 1 -4.37114e-08 781.61 850.529)" fill="#F3D503"/>
<circle r="1.44203" transform="matrix(4.37114e-08 1 1 -4.37114e-08 781.61 905.326)" fill="#F3D503"/>
<circle r="1.44203" transform="matrix(4.37114e-08 1 1 -4.37114e-08 781.61 740.935)" fill="#F3D503"/>
<circle r="1.44203" transform="matrix(4.37114e-08 1 1 -4.37114e-08 781.61 795.732)" fill="#F3D503"/>
<circle r="1.44203" transform="matrix(4.37114e-08 1 1 -4.37114e-08 1274.78 192.964)" fill="#F3D503"/>
<circle r="1.44203" transform="matrix(4.37114e-08 1 1 -4.37114e-08 1274.78 247.761)" fill="#F3D503"/>
<circle r="1.44203" transform="matrix(4.37114e-08 1 1 -4.37114e-08 1274.78 83.3693)" fill="#F3D503"/>
<circle r="1.44203" transform="matrix(4.37114e-08 1 1 -4.37114e-08 1274.78 138.166)" fill="#F3D503"/>
<circle r="1.44203" transform="matrix(4.37114e-08 1 1 -4.37114e-08 1274.78 28.5722)" fill="#F3D503"/>
<circle r="1.44203" transform="matrix(4.37114e-08 1 1 -4.37114e-08 1329.58 192.964)" fill="#F3D503"/>
<circle r="1.44203" transform="matrix(4.37114e-08 1 1 -4.37114e-08 1329.58 247.761)" fill="#F3D503"/>
<circle r="1.44203" transform="matrix(4.37114e-08 1 1 -4.37114e-08 1329.58 83.3693)" fill="#F3D503"/>
<circle r="1.44203" transform="matrix(4.37114e-08 1 1 -4.37114e-08 1329.58 138.166)" fill="#F3D503"/>
<circle r="1.44203" transform="matrix(4.37114e-08 1 1 -4.37114e-08 1329.58 28.5722)" fill="#F3D503"/>
<circle r="1.44203" transform="matrix(4.37114e-08 1 1 -4.37114e-08 1384.38 192.964)" fill="#F3D503"/>
<circle r="1.44203" transform="matrix(4.37114e-08 1 1 -4.37114e-08 1384.38 247.761)" fill="#F3D503"/>
<circle r="1.44203" transform="matrix(4.37114e-08 1 1 -4.37114e-08 1384.38 83.3693)" fill="#F3D503"/>
<circle r="1.44203" transform="matrix(4.37114e-08 1 1 -4.37114e-08 1384.38 138.166)" fill="#F3D503"/>
<circle r="1.44203" transform="matrix(4.37114e-08 1 1 -4.37114e-08 1384.38 28.5722)" fill="#F3D503"/>
<circle r="1.44203" transform="matrix(4.37114e-08 1 1 -4.37114e-08 1439.18 192.964)" fill="#F3D503"/>
<circle r="1.44203" transform="matrix(4.37114e-08 1 1 -4.37114e-08 1439.18 247.761)" fill="#F3D503"/>
<circle r="1.44203" transform="matrix(4.37114e-08 1 1 -4.37114e-08 1439.18 83.3693)" fill="#F3D503"/>
<circle r="1.44203" transform="matrix(4.37114e-08 1 1 -4.37114e-08 1439.18 138.166)" fill="#F3D503"/>
<circle r="1.44203" transform="matrix(4.37114e-08 1 1 -4.37114e-08 1439.18 28.5722)" fill="#F3D503"/>
<circle r="1.44203" transform="matrix(4.37114e-08 1 1 -4.37114e-08 1274.78 631.341)" fill="#F3D503"/>
<circle r="1.44203" transform="matrix(4.37114e-08 1 1 -4.37114e-08 1274.78 686.138)" fill="#F3D503"/>
<circle r="1.44203" transform="matrix(4.37114e-08 1 1 -4.37114e-08 1274.78 521.746)" fill="#F3D503"/>
<circle r="1.44203" transform="matrix(4.37114e-08 1 1 -4.37114e-08 1274.78 576.543)" fill="#F3D503"/>
<circle r="1.44203" transform="matrix(4.37114e-08 1 1 -4.37114e-08 1274.78 412.152)" fill="#F3D503"/>
<circle r="1.44203" transform="matrix(4.37114e-08 1 1 -4.37114e-08 1274.78 466.949)" fill="#F3D503"/>
<circle r="1.44203" transform="matrix(4.37114e-08 1 1 -4.37114e-08 1274.78 302.558)" fill="#F3D503"/>
<circle r="1.44203" transform="matrix(4.37114e-08 1 1 -4.37114e-08 1274.78 357.355)" fill="#F3D503"/>
<circle r="1.44203" transform="matrix(4.37114e-08 1 1 -4.37114e-08 1329.58 631.341)" fill="#F3D503"/>
<circle r="1.44203" transform="matrix(4.37114e-08 1 1 -4.37114e-08 1329.58 686.138)" fill="#F3D503"/>
<circle r="1.44203" transform="matrix(4.37114e-08 1 1 -4.37114e-08 1329.58 521.746)" fill="#F3D503"/>
<circle r="1.44203" transform="matrix(4.37114e-08 1 1 -4.37114e-08 1329.58 576.543)" fill="#F3D503"/>
<circle r="1.44203" transform="matrix(4.37114e-08 1 1 -4.37114e-08 1329.58 412.152)" fill="#F3D503"/>
<circle r="1.44203" transform="matrix(4.37114e-08 1 1 -4.37114e-08 1329.58 466.949)" fill="#F3D503"/>
<circle r="1.44203" transform="matrix(4.37114e-08 1 1 -4.37114e-08 1329.58 302.558)" fill="#F3D503"/>
<circle r="1.44203" transform="matrix(4.37114e-08 1 1 -4.37114e-08 1329.58 357.355)" fill="#F3D503"/>
<circle r="1.44203" transform="matrix(4.37114e-08 1 1 -4.37114e-08 1384.38 631.341)" fill="#F3D503"/>
<circle r="1.44203" transform="matrix(4.37114e-08 1 1 -4.37114e-08 1384.38 686.138)" fill="#F3D503"/>
<circle r="1.44203" transform="matrix(4.37114e-08 1 1 -4.37114e-08 1384.38 521.746)" fill="#F3D503"/>
<circle r="1.44203" transform="matrix(4.37114e-08 1 1 -4.37114e-08 1384.38 576.543)" fill="#F3D503"/>
<circle r="1.44203" transform="matrix(4.37114e-08 1 1 -4.37114e-08 1384.38 412.152)" fill="#F3D503"/>
<circle r="1.44203" transform="matrix(4.37114e-08 1 1 -4.37114e-08 1384.38 466.949)" fill="#F3D503"/>
<circle r="1.44203" transform="matrix(4.37114e-08 1 1 -4.37114e-08 1384.38 302.558)" fill="#F3D503"/>
<circle r="1.44203" transform="matrix(4.37114e-08 1 1 -4.37114e-08 1384.38 357.355)" fill="#F3D503"/>
<circle r="1.44203" transform="matrix(4.37114e-08 1 1 -4.37114e-08 1439.18 631.341)" fill="#F3D503"/>
<circle r="1.44203" transform="matrix(4.37114e-08 1 1 -4.37114e-08 1439.18 686.138)" fill="#F3D503"/>
<circle r="1.44203" transform="matrix(4.37114e-08 1 1 -4.37114e-08 1439.18 521.746)" fill="#F3D503"/>
<circle r="1.44203" transform="matrix(4.37114e-08 1 1 -4.37114e-08 1439.18 576.543)" fill="#F3D503"/>
<circle r="1.44203" transform="matrix(4.37114e-08 1 1 -4.37114e-08 1439.18 412.152)" fill="#F3D503"/>
<circle r="1.44203" transform="matrix(4.37114e-08 1 1 -4.37114e-08 1439.18 466.949)" fill="#F3D503"/>
<circle r="1.44203" transform="matrix(4.37114e-08 1 1 -4.37114e-08 1439.18 302.558)" fill="#F3D503"/>
<circle r="1.44203" transform="matrix(4.37114e-08 1 1 -4.37114e-08 1439.18 357.355)" fill="#F3D503"/>
<circle r="1.44203" transform="matrix(4.37114e-08 1 1 -4.37114e-08 1055.6 192.964)" fill="#F3D503"/>
<circle r="1.44203" transform="matrix(4.37114e-08 1 1 -4.37114e-08 1055.6 247.761)" fill="#F3D503"/>
<circle r="1.44203" transform="matrix(4.37114e-08 1 1 -4.37114e-08 1055.6 83.3693)" fill="#F3D503"/>
<circle r="1.44203" transform="matrix(4.37114e-08 1 1 -4.37114e-08 1055.6 138.166)" fill="#F3D503"/>
<circle r="1.44203" transform="matrix(4.37114e-08 1 1 -4.37114e-08 1055.6 28.5722)" fill="#F3D503"/>
<circle r="1.44203" transform="matrix(4.37114e-08 1 1 -4.37114e-08 1110.39 192.964)" fill="#F3D503"/>
<circle r="1.44203" transform="matrix(4.37114e-08 1 1 -4.37114e-08 1110.39 247.761)" fill="#F3D503"/>
<circle r="1.44203" transform="matrix(4.37114e-08 1 1 -4.37114e-08 1110.39 83.3693)" fill="#F3D503"/>
<circle r="1.44203" transform="matrix(4.37114e-08 1 1 -4.37114e-08 1110.39 138.166)" fill="#F3D503"/>
<circle r="1.44203" transform="matrix(4.37114e-08 1 1 -4.37114e-08 1110.39 28.5722)" fill="#F3D503"/>
<circle r="1.44203" transform="matrix(4.37114e-08 1 1 -4.37114e-08 1165.19 192.964)" fill="#F3D503"/>
<circle r="1.44203" transform="matrix(4.37114e-08 1 1 -4.37114e-08 1165.19 247.761)" fill="#F3D503"/>
<circle r="1.44203" transform="matrix(4.37114e-08 1 1 -4.37114e-08 1165.19 83.3693)" fill="#F3D503"/>
<circle r="1.44203" transform="matrix(4.37114e-08 1 1 -4.37114e-08 1165.19 138.166)" fill="#F3D503"/>
<circle r="1.44203" transform="matrix(4.37114e-08 1 1 -4.37114e-08 1165.19 28.5722)" fill="#F3D503"/>
<circle r="1.44203" transform="matrix(4.37114e-08 1 1 -4.37114e-08 1219.99 192.964)" fill="#F3D503"/>
<circle r="1.44203" transform="matrix(4.37114e-08 1 1 -4.37114e-08 1219.99 247.761)" fill="#F3D503"/>
<circle r="1.44203" transform="matrix(4.37114e-08 1 1 -4.37114e-08 1219.99 83.3693)" fill="#F3D503"/>
<circle r="1.44203" transform="matrix(4.37114e-08 1 1 -4.37114e-08 1219.99 138.166)" fill="#F3D503"/>
<circle r="1.44203" transform="matrix(4.37114e-08 1 1 -4.37114e-08 1219.99 28.5722)" fill="#F3D503"/>
<circle r="1.44203" transform="matrix(4.37114e-08 1 1 -4.37114e-08 1055.6 631.341)" fill="#F3D503"/>
<circle r="1.44203" transform="matrix(4.37114e-08 1 1 -4.37114e-08 1055.6 686.138)" fill="#F3D503"/>
<circle r="1.44203" transform="matrix(4.37114e-08 1 1 -4.37114e-08 1055.6 521.746)" fill="#F3D503"/>
<circle r="1.44203" transform="matrix(4.37114e-08 1 1 -4.37114e-08 1055.6 576.544)" fill="#F3D503"/>
<circle r="1.44203" transform="matrix(4.37114e-08 1 1 -4.37114e-08 1055.6 412.152)" fill="#F3D503"/>
<circle r="1.44203" transform="matrix(4.37114e-08 1 1 -4.37114e-08 1055.6 466.949)" fill="#F3D503"/>
<circle r="1.44203" transform="matrix(4.37114e-08 1 1 -4.37114e-08 1055.6 302.558)" fill="#F3D503"/>
<circle r="1.44203" transform="matrix(4.37114e-08 1 1 -4.37114e-08 1055.6 357.355)" fill="#F3D503"/>
<circle r="1.44203" transform="matrix(4.37114e-08 1 1 -4.37114e-08 1110.39 631.341)" fill="#F3D503"/>
<circle r="1.44203" transform="matrix(4.37114e-08 1 1 -4.37114e-08 1110.39 686.138)" fill="#F3D503"/>
<circle r="1.44203" transform="matrix(4.37114e-08 1 1 -4.37114e-08 1110.39 521.746)" fill="#F3D503"/>
<circle r="1.44203" transform="matrix(4.37114e-08 1 1 -4.37114e-08 1110.39 576.544)" fill="#F3D503"/>
<circle r="1.44203" transform="matrix(4.37114e-08 1 1 -4.37114e-08 1110.39 412.152)" fill="#F3D503"/>
<circle r="1.44203" transform="matrix(4.37114e-08 1 1 -4.37114e-08 1110.39 466.949)" fill="#F3D503"/>
<circle r="1.44203" transform="matrix(4.37114e-08 1 1 -4.37114e-08 1110.39 302.558)" fill="#F3D503"/>
<circle r="1.44203" transform="matrix(4.37114e-08 1 1 -4.37114e-08 1110.39 357.355)" fill="#F3D503"/>
<circle r="1.44203" transform="matrix(4.37114e-08 1 1 -4.37114e-08 1165.19 631.341)" fill="#F3D503"/>
<circle r="1.44203" transform="matrix(4.37114e-08 1 1 -4.37114e-08 1165.19 686.138)" fill="#F3D503"/>
<circle r="1.44203" transform="matrix(4.37114e-08 1 1 -4.37114e-08 1165.19 521.746)" fill="#F3D503"/>
<circle r="1.44203" transform="matrix(4.37114e-08 1 1 -4.37114e-08 1165.19 576.544)" fill="#F3D503"/>
<circle r="1.44203" transform="matrix(4.37114e-08 1 1 -4.37114e-08 1165.19 412.152)" fill="#F3D503"/>
<circle r="1.44203" transform="matrix(4.37114e-08 1 1 -4.37114e-08 1165.19 466.949)" fill="#F3D503"/>
<circle r="1.44203" transform="matrix(4.37114e-08 1 1 -4.37114e-08 1165.19 302.558)" fill="#F3D503"/>
<circle r="1.44203" transform="matrix(4.37114e-08 1 1 -4.37114e-08 1165.19 357.355)" fill="#F3D503"/>
<circle r="1.44203" transform="matrix(4.37114e-08 1 1 -4.37114e-08 1219.99 631.341)" fill="#F3D503"/>
<circle r="1.44203" transform="matrix(4.37114e-08 1 1 -4.37114e-08 1219.99 686.138)" fill="#F3D503"/>
<circle r="1.44203" transform="matrix(4.37114e-08 1 1 -4.37114e-08 1219.99 521.746)" fill="#F3D503"/>
<circle r="1.44203" transform="matrix(4.37114e-08 1 1 -4.37114e-08 1219.99 576.543)" fill="#F3D503"/>
<circle r="1.44203" transform="matrix(4.37114e-08 1 1 -4.37114e-08 1219.99 412.152)" fill="#F3D503"/>
<circle r="1.44203" transform="matrix(4.37114e-08 1 1 -4.37114e-08 1219.99 466.949)" fill="#F3D503"/>
<circle r="1.44203" transform="matrix(4.37114e-08 1 1 -4.37114e-08 1219.99 302.558)" fill="#F3D503"/>
<circle r="1.44203" transform="matrix(4.37114e-08 1 1 -4.37114e-08 1219.99 357.355)" fill="#F3D503"/>
<circle r="1.44203" transform="matrix(4.37114e-08 1 1 -4.37114e-08 1713.16 192.964)" fill="#F3D503"/>
<circle r="1.44203" transform="matrix(4.37114e-08 1 1 -4.37114e-08 1713.16 247.761)" fill="#F3D503"/>
<circle r="1.44203" transform="matrix(4.37114e-08 1 1 -4.37114e-08 1713.16 83.3693)" fill="#F3D503"/>
<circle r="1.44203" transform="matrix(4.37114e-08 1 1 -4.37114e-08 1713.16 138.166)" fill="#F3D503"/>
<circle r="1.44203" transform="matrix(4.37114e-08 1 1 -4.37114e-08 1713.16 28.5722)" fill="#F3D503"/>
<circle r="1.44203" transform="matrix(4.37114e-08 1 1 -4.37114e-08 1767.96 192.964)" fill="#F3D503"/>
<circle r="1.44203" transform="matrix(4.37114e-08 1 1 -4.37114e-08 1767.96 247.761)" fill="#F3D503"/>
<circle r="1.44203" transform="matrix(4.37114e-08 1 1 -4.37114e-08 1767.96 83.3693)" fill="#F3D503"/>
<circle r="1.44203" transform="matrix(4.37114e-08 1 1 -4.37114e-08 1767.96 138.166)" fill="#F3D503"/>
<circle r="1.44203" transform="matrix(4.37114e-08 1 1 -4.37114e-08 1767.96 28.5722)" fill="#F3D503"/>
<circle r="1.44203" transform="matrix(4.37114e-08 1 1 -4.37114e-08 1822.76 192.964)" fill="#F3D503"/>
<circle r="1.44203" transform="matrix(4.37114e-08 1 1 -4.37114e-08 1822.76 247.761)" fill="#F3D503"/>
<circle r="1.44203" transform="matrix(4.37114e-08 1 1 -4.37114e-08 1822.76 83.3693)" fill="#F3D503"/>
<circle r="1.44203" transform="matrix(4.37114e-08 1 1 -4.37114e-08 1822.76 138.166)" fill="#F3D503"/>
<circle r="1.44203" transform="matrix(4.37114e-08 1 1 -4.37114e-08 1822.76 28.5722)" fill="#F3D503"/>
<circle r="1.44203" transform="matrix(4.37114e-08 1 1 -4.37114e-08 1877.55 192.964)" fill="#F3D503"/>
<circle r="1.44203" transform="matrix(4.37114e-08 1 1 -4.37114e-08 1877.55 247.761)" fill="#F3D503"/>
<circle r="1.44203" transform="matrix(4.37114e-08 1 1 -4.37114e-08 1877.55 83.3693)" fill="#F3D503"/>
<circle r="1.44203" transform="matrix(4.37114e-08 1 1 -4.37114e-08 1877.55 138.166)" fill="#F3D503"/>
<circle r="1.44203" transform="matrix(4.37114e-08 1 1 -4.37114e-08 1877.55 28.5722)" fill="#F3D503"/>
<circle r="1.44203" transform="matrix(4.37114e-08 1 1 -4.37114e-08 1713.16 631.341)" fill="#F3D503"/>
<circle r="1.44203" transform="matrix(4.37114e-08 1 1 -4.37114e-08 1713.16 686.138)" fill="#F3D503"/>
<circle r="1.44203" transform="matrix(4.37114e-08 1 1 -4.37114e-08 1713.16 521.746)" fill="#F3D503"/>
<circle r="1.44203" transform="matrix(4.37114e-08 1 1 -4.37114e-08 1713.16 576.543)" fill="#F3D503"/>
<circle r="1.44203" transform="matrix(4.37114e-08 1 1 -4.37114e-08 1713.16 412.152)" fill="#F3D503"/>
<circle r="1.44203" transform="matrix(4.37114e-08 1 1 -4.37114e-08 1713.16 466.949)" fill="#F3D503"/>
<circle r="1.44203" transform="matrix(4.37114e-08 1 1 -4.37114e-08 1713.16 302.558)" fill="#F3D503"/>
<circle r="1.44203" transform="matrix(4.37114e-08 1 1 -4.37114e-08 1713.16 357.355)" fill="#F3D503"/>
<circle r="1.44203" transform="matrix(4.37114e-08 1 1 -4.37114e-08 1767.96 631.341)" fill="#F3D503"/>
<circle r="1.44203" transform="matrix(4.37114e-08 1 1 -4.37114e-08 1767.96 686.138)" fill="#F3D503"/>
<circle r="1.44203" transform="matrix(4.37114e-08 1 1 -4.37114e-08 1767.96 521.746)" fill="#F3D503"/>
<circle r="1.44203" transform="matrix(4.37114e-08 1 1 -4.37114e-08 1767.96 576.543)" fill="#F3D503"/>
<circle r="1.44203" transform="matrix(4.37114e-08 1 1 -4.37114e-08 1767.96 412.152)" fill="#F3D503"/>
<circle r="1.44203" transform="matrix(4.37114e-08 1 1 -4.37114e-08 1767.96 466.949)" fill="#F3D503"/>
<circle r="1.44203" transform="matrix(4.37114e-08 1 1 -4.37114e-08 1767.96 302.558)" fill="#F3D503"/>
<circle r="1.44203" transform="matrix(4.37114e-08 1 1 -4.37114e-08 1767.96 357.355)" fill="#F3D503"/>
<circle r="1.44203" transform="matrix(4.37114e-08 1 1 -4.37114e-08 1822.76 631.341)" fill="#F3D503"/>
<circle r="1.44203" transform="matrix(4.37114e-08 1 1 -4.37114e-08 1822.76 686.138)" fill="#F3D503"/>
<circle r="1.44203" transform="matrix(4.37114e-08 1 1 -4.37114e-08 1822.76 521.746)" fill="#F3D503"/>
<circle r="1.44203" transform="matrix(4.37114e-08 1 1 -4.37114e-08 1822.76 576.543)" fill="#F3D503"/>
<circle r="1.44203" transform="matrix(4.37114e-08 1 1 -4.37114e-08 1822.76 412.152)" fill="#F3D503"/>
<circle r="1.44203" transform="matrix(4.37114e-08 1 1 -4.37114e-08 1822.76 466.949)" fill="#F3D503"/>
<circle r="1.44203" transform="matrix(4.37114e-08 1 1 -4.37114e-08 1822.76 302.558)" fill="#F3D503"/>
<circle r="1.44203" transform="matrix(4.37114e-08 1 1 -4.37114e-08 1822.76 357.355)" fill="#F3D503"/>
<circle r="1.44203" transform="matrix(4.37114e-08 1 1 -4.37114e-08 1877.55 631.341)" fill="#F3D503"/>
<circle r="1.44203" transform="matrix(4.37114e-08 1 1 -4.37114e-08 1877.55 686.138)" fill="#F3D503"/>
<circle r="1.44203" transform="matrix(4.37114e-08 1 1 -4.37114e-08 1877.55 521.746)" fill="#F3D503"/>
<circle r="1.44203" transform="matrix(4.37114e-08 1 1 -4.37114e-08 1877.55 576.543)" fill="#F3D503"/>
<circle r="1.44203" transform="matrix(4.37114e-08 1 1 -4.37114e-08 1877.55 412.152)" fill="#F3D503"/>
<circle r="1.44203" transform="matrix(4.37114e-08 1 1 -4.37114e-08 1877.55 466.949)" fill="#F3D503"/>
<circle r="1.44203" transform="matrix(4.37114e-08 1 1 -4.37114e-08 1877.55 302.558)" fill="#F3D503"/>
<circle r="1.44203" transform="matrix(4.37114e-08 1 1 -4.37114e-08 1877.55 357.355)" fill="#F3D503"/>
<circle r="1.44203" transform="matrix(4.37114e-08 1 1 -4.37114e-08 1493.97 192.964)" fill="#F3D503"/>
<circle r="1.44203" transform="matrix(4.37114e-08 1 1 -4.37114e-08 1493.97 247.761)" fill="#F3D503"/>
<circle r="1.44203" transform="matrix(4.37114e-08 1 1 -4.37114e-08 1493.97 83.3693)" fill="#F3D503"/>
<circle r="1.44203" transform="matrix(4.37114e-08 1 1 -4.37114e-08 1493.97 138.166)" fill="#F3D503"/>
<circle r="1.44203" transform="matrix(4.37114e-08 1 1 -4.37114e-08 1493.97 28.5722)" fill="#F3D503"/>
<circle r="1.44203" transform="matrix(4.37114e-08 1 1 -4.37114e-08 1548.77 192.964)" fill="#F3D503"/>
<circle r="1.44203" transform="matrix(4.37114e-08 1 1 -4.37114e-08 1548.77 247.761)" fill="#F3D503"/>
<circle r="1.44203" transform="matrix(4.37114e-08 1 1 -4.37114e-08 1548.77 83.3693)" fill="#F3D503"/>
<circle r="1.44203" transform="matrix(4.37114e-08 1 1 -4.37114e-08 1548.77 138.166)" fill="#F3D503"/>
<circle r="1.44203" transform="matrix(4.37114e-08 1 1 -4.37114e-08 1548.77 28.5722)" fill="#F3D503"/>
<circle r="1.44203" transform="matrix(4.37114e-08 1 1 -4.37114e-08 1603.57 192.964)" fill="#F3D503"/>
<circle r="1.44203" transform="matrix(4.37114e-08 1 1 -4.37114e-08 1603.57 247.761)" fill="#F3D503"/>
<circle r="1.44203" transform="matrix(4.37114e-08 1 1 -4.37114e-08 1603.57 83.3693)" fill="#F3D503"/>
<circle r="1.44203" transform="matrix(4.37114e-08 1 1 -4.37114e-08 1603.57 138.166)" fill="#F3D503"/>
<circle r="1.44203" transform="matrix(4.37114e-08 1 1 -4.37114e-08 1603.57 28.5722)" fill="#F3D503"/>
<circle r="1.44203" transform="matrix(4.37114e-08 1 1 -4.37114e-08 1658.36 192.964)" fill="#F3D503"/>
<circle r="1.44203" transform="matrix(4.37114e-08 1 1 -4.37114e-08 1658.36 247.761)" fill="#F3D503"/>
<circle r="1.44203" transform="matrix(4.37114e-08 1 1 -4.37114e-08 1658.36 83.3693)" fill="#F3D503"/>
<circle r="1.44203" transform="matrix(4.37114e-08 1 1 -4.37114e-08 1658.36 138.166)" fill="#F3D503"/>
<circle r="1.44203" transform="matrix(4.37114e-08 1 1 -4.37114e-08 1658.36 28.5722)" fill="#F3D503"/>
<circle r="1.44203" transform="matrix(4.37114e-08 1 1 -4.37114e-08 1493.97 631.341)" fill="#F3D503"/>
<circle r="1.44203" transform="matrix(4.37114e-08 1 1 -4.37114e-08 1493.97 686.138)" fill="#F3D503"/>
<circle r="1.44203" transform="matrix(4.37114e-08 1 1 -4.37114e-08 1493.97 521.746)" fill="#F3D503"/>
<circle r="1.44203" transform="matrix(4.37114e-08 1 1 -4.37114e-08 1493.97 576.543)" fill="#F3D503"/>
<circle r="1.44203" transform="matrix(4.37114e-08 1 1 -4.37114e-08 1493.97 412.152)" fill="#F3D503"/>
<circle r="1.44203" transform="matrix(4.37114e-08 1 1 -4.37114e-08 1493.97 466.949)" fill="#F3D503"/>
<circle r="1.44203" transform="matrix(4.37114e-08 1 1 -4.37114e-08 1493.97 302.558)" fill="#F3D503"/>
<circle r="1.44203" transform="matrix(4.37114e-08 1 1 -4.37114e-08 1493.97 357.355)" fill="#F3D503"/>
<circle r="1.44203" transform="matrix(4.37114e-08 1 1 -4.37114e-08 1548.77 631.341)" fill="#F3D503"/>
<circle r="1.44203" transform="matrix(4.37114e-08 1 1 -4.37114e-08 1548.77 686.138)" fill="#F3D503"/>
<circle r="1.44203" transform="matrix(4.37114e-08 1 1 -4.37114e-08 1548.77 521.746)" fill="#F3D503"/>
<circle r="1.44203" transform="matrix(4.37114e-08 1 1 -4.37114e-08 1548.77 576.543)" fill="#F3D503"/>
<circle r="1.44203" transform="matrix(4.37114e-08 1 1 -4.37114e-08 1548.77 412.152)" fill="#F3D503"/>
<circle r="1.44203" transform="matrix(4.37114e-08 1 1 -4.37114e-08 1548.77 466.949)" fill="#F3D503"/>
<circle r="1.44203" transform="matrix(4.37114e-08 1 1 -4.37114e-08 1548.77 302.558)" fill="#F3D503"/>
<circle r="1.44203" transform="matrix(4.37114e-08 1 1 -4.37114e-08 1548.77 357.355)" fill="#F3D503"/>
<circle r="1.44203" transform="matrix(4.37114e-08 1 1 -4.37114e-08 1603.57 631.341)" fill="#F3D503"/>
<circle r="1.44203" transform="matrix(4.37114e-08 1 1 -4.37114e-08 1603.57 686.138)" fill="#F3D503"/>
<circle r="1.44203" transform="matrix(4.37114e-08 1 1 -4.37114e-08 1603.57 521.746)" fill="#F3D503"/>
<circle r="1.44203" transform="matrix(4.37114e-08 1 1 -4.37114e-08 1603.57 576.543)" fill="#F3D503"/>
<circle r="1.44203" transform="matrix(4.37114e-08 1 1 -4.37114e-08 1603.57 412.152)" fill="#F3D503"/>
<circle r="1.44203" transform="matrix(4.37114e-08 1 1 -4.37114e-08 1603.57 466.949)" fill="#F3D503"/>
<circle r="1.44203" transform="matrix(4.37114e-08 1 1 -4.37114e-08 1603.57 302.558)" fill="#F3D503"/>
<circle r="1.44203" transform="matrix(4.37114e-08 1 1 -4.37114e-08 1603.57 357.355)" fill="#F3D503"/>
<circle r="1.44203" transform="matrix(4.37114e-08 1 1 -4.37114e-08 1658.36 631.341)" fill="#F3D503"/>
<circle r="1.44203" transform="matrix(4.37114e-08 1 1 -4.37114e-08 1658.36 686.138)" fill="#F3D503"/>
<circle r="1.44203" transform="matrix(4.37114e-08 1 1 -4.37114e-08 1658.36 521.746)" fill="#F3D503"/>
<circle r="1.44203" transform="matrix(4.37114e-08 1 1 -4.37114e-08 1658.36 576.543)" fill="#F3D503"/>
<circle r="1.44203" transform="matrix(4.37114e-08 1 1 -4.37114e-08 1658.36 412.152)" fill="#F3D503"/>
<circle r="1.44203" transform="matrix(4.37114e-08 1 1 -4.37114e-08 1658.36 466.949)" fill="#F3D503"/>
<circle r="1.44203" transform="matrix(4.37114e-08 1 1 -4.37114e-08 1658.36 302.558)" fill="#F3D503"/>
<circle r="1.44203" transform="matrix(4.37114e-08 1 1 -4.37114e-08 1658.36 357.355)" fill="#F3D503"/>
<circle r="1.44203" transform="matrix(4.37114e-08 1 1 -4.37114e-08 1274.78 1069.72)" fill="#F3D503"/>
<circle r="1.44203" transform="matrix(4.37114e-08 1 1 -4.37114e-08 1274.78 960.123)" fill="#F3D503"/>
<circle r="1.44203" transform="matrix(4.37114e-08 1 1 -4.37114e-08 1274.78 1014.92)" fill="#F3D503"/>
<circle r="1.44203" transform="matrix(4.37114e-08 1 1 -4.37114e-08 1274.78 850.529)" fill="#F3D503"/>
<circle r="1.44203" transform="matrix(4.37114e-08 1 1 -4.37114e-08 1274.78 905.326)" fill="#F3D503"/>
<circle r="1.44203" transform="matrix(4.37114e-08 1 1 -4.37114e-08 1274.78 740.935)" fill="#F3D503"/>
<circle r="1.44203" transform="matrix(4.37114e-08 1 1 -4.37114e-08 1274.78 795.732)" fill="#F3D503"/>
<circle r="1.44203" transform="matrix(4.37114e-08 1 1 -4.37114e-08 1329.58 1069.72)" fill="#F3D503"/>
<circle r="1.44203" transform="matrix(4.37114e-08 1 1 -4.37114e-08 1329.58 960.123)" fill="#F3D503"/>
<circle r="1.44203" transform="matrix(4.37114e-08 1 1 -4.37114e-08 1329.58 1014.92)" fill="#F3D503"/>
<circle r="1.44203" transform="matrix(4.37114e-08 1 1 -4.37114e-08 1329.58 850.529)" fill="#F3D503"/>
<circle r="1.44203" transform="matrix(4.37114e-08 1 1 -4.37114e-08 1329.58 905.326)" fill="#F3D503"/>
<circle r="1.44203" transform="matrix(4.37114e-08 1 1 -4.37114e-08 1329.58 740.935)" fill="#F3D503"/>
<circle r="1.44203" transform="matrix(4.37114e-08 1 1 -4.37114e-08 1329.58 795.732)" fill="#F3D503"/>
<circle r="1.44203" transform="matrix(4.37114e-08 1 1 -4.37114e-08 1384.38 1069.72)" fill="#F3D503"/>
<circle r="1.44203" transform="matrix(4.37114e-08 1 1 -4.37114e-08 1384.38 960.123)" fill="#F3D503"/>
<circle r="1.44203" transform="matrix(4.37114e-08 1 1 -4.37114e-08 1384.38 1014.92)" fill="#F3D503"/>
<circle r="1.44203" transform="matrix(4.37114e-08 1 1 -4.37114e-08 1384.38 850.529)" fill="#F3D503"/>
<circle r="1.44203" transform="matrix(4.37114e-08 1 1 -4.37114e-08 1384.38 905.326)" fill="#F3D503"/>
<circle r="1.44203" transform="matrix(4.37114e-08 1 1 -4.37114e-08 1384.38 740.935)" fill="#F3D503"/>
<circle r="1.44203" transform="matrix(4.37114e-08 1 1 -4.37114e-08 1384.38 795.732)" fill="#F3D503"/>
<circle r="1.44203" transform="matrix(4.37114e-08 1 1 -4.37114e-08 1439.18 1069.72)" fill="#F3D503"/>
<circle r="1.44203" transform="matrix(4.37114e-08 1 1 -4.37114e-08 1439.18 960.123)" fill="#F3D503"/>
<circle r="1.44203" transform="matrix(4.37114e-08 1 1 -4.37114e-08 1439.18 1014.92)" fill="#F3D503"/>
<circle r="1.44203" transform="matrix(4.37114e-08 1 1 -4.37114e-08 1439.18 850.529)" fill="#F3D503"/>
<circle r="1.44203" transform="matrix(4.37114e-08 1 1 -4.37114e-08 1439.18 905.326)" fill="#F3D503"/>
<circle r="1.44203" transform="matrix(4.37114e-08 1 1 -4.37114e-08 1439.18 740.935)" fill="#F3D503"/>
<circle r="1.44203" transform="matrix(4.37114e-08 1 1 -4.37114e-08 1439.18 795.732)" fill="#F3D503"/>
<circle r="1.44203" transform="matrix(4.37114e-08 1 1 -4.37114e-08 1055.6 1069.72)" fill="#F3D503"/>
<circle r="1.44203" transform="matrix(4.37114e-08 1 1 -4.37114e-08 1055.6 960.123)" fill="#F3D503"/>
<circle r="1.44203" transform="matrix(4.37114e-08 1 1 -4.37114e-08 1055.6 1014.92)" fill="#F3D503"/>
<circle r="1.44203" transform="matrix(4.37114e-08 1 1 -4.37114e-08 1055.6 850.529)" fill="#F3D503"/>
<circle r="1.44203" transform="matrix(4.37114e-08 1 1 -4.37114e-08 1055.6 905.326)" fill="#F3D503"/>
<circle r="1.44203" transform="matrix(4.37114e-08 1 1 -4.37114e-08 1055.6 740.935)" fill="#F3D503"/>
<circle r="1.44203" transform="matrix(4.37114e-08 1 1 -4.37114e-08 1055.6 795.732)" fill="#F3D503"/>
<circle r="1.44203" transform="matrix(4.37114e-08 1 1 -4.37114e-08 1110.39 1069.72)" fill="#F3D503"/>
<circle r="1.44203" transform="matrix(4.37114e-08 1 1 -4.37114e-08 1110.39 960.123)" fill="#F3D503"/>
<circle r="1.44203" transform="matrix(4.37114e-08 1 1 -4.37114e-08 1110.39 1014.92)" fill="#F3D503"/>
<circle r="1.44203" transform="matrix(4.37114e-08 1 1 -4.37114e-08 1110.39 850.529)" fill="#F3D503"/>
<circle r="1.44203" transform="matrix(4.37114e-08 1 1 -4.37114e-08 1110.39 905.326)" fill="#F3D503"/>
<circle r="1.44203" transform="matrix(4.37114e-08 1 1 -4.37114e-08 1110.39 740.935)" fill="#F3D503"/>
<circle r="1.44203" transform="matrix(4.37114e-08 1 1 -4.37114e-08 1110.39 795.732)" fill="#F3D503"/>
<circle r="1.44203" transform="matrix(4.37114e-08 1 1 -4.37114e-08 1165.19 1069.72)" fill="#F3D503"/>
<circle r="1.44203" transform="matrix(4.37114e-08 1 1 -4.37114e-08 1165.19 960.124)" fill="#F3D503"/>
<circle r="1.44203" transform="matrix(4.37114e-08 1 1 -4.37114e-08 1165.19 1014.92)" fill="#F3D503"/>
<circle r="1.44203" transform="matrix(4.37114e-08 1 1 -4.37114e-08 1165.19 850.529)" fill="#F3D503"/>
<circle r="1.44203" transform="matrix(4.37114e-08 1 1 -4.37114e-08 1165.19 905.326)" fill="#F3D503"/>
<circle r="1.44203" transform="matrix(4.37114e-08 1 1 -4.37114e-08 1165.19 740.935)" fill="#F3D503"/>
<circle r="1.44203" transform="matrix(4.37114e-08 1 1 -4.37114e-08 1165.19 795.732)" fill="#F3D503"/>
<circle r="1.44203" transform="matrix(4.37114e-08 1 1 -4.37114e-08 1219.99 1069.72)" fill="#F3D503"/>
<circle r="1.44203" transform="matrix(4.37114e-08 1 1 -4.37114e-08 1219.99 960.123)" fill="#F3D503"/>
<circle r="1.44203" transform="matrix(4.37114e-08 1 1 -4.37114e-08 1219.99 1014.92)" fill="#F3D503"/>
<circle r="1.44203" transform="matrix(4.37114e-08 1 1 -4.37114e-08 1219.99 850.529)" fill="#F3D503"/>
<circle r="1.44203" transform="matrix(4.37114e-08 1 1 -4.37114e-08 1219.99 905.326)" fill="#F3D503"/>
<circle r="1.44203" transform="matrix(4.37114e-08 1 1 -4.37114e-08 1219.99 740.935)" fill="#F3D503"/>
<circle r="1.44203" transform="matrix(4.37114e-08 1 1 -4.37114e-08 1219.99 795.732)" fill="#F3D503"/>
<circle r="1.44203" transform="matrix(4.37114e-08 1 1 -4.37114e-08 1713.16 1069.72)" fill="#F3D503"/>
<circle r="1.44203" transform="matrix(4.37114e-08 1 1 -4.37114e-08 1713.16 960.123)" fill="#F3D503"/>
<circle r="1.44203" transform="matrix(4.37114e-08 1 1 -4.37114e-08 1713.16 1014.92)" fill="#F3D503"/>
<circle r="1.44203" transform="matrix(4.37114e-08 1 1 -4.37114e-08 1713.16 850.529)" fill="#F3D503"/>
<circle r="1.44203" transform="matrix(4.37114e-08 1 1 -4.37114e-08 1713.16 905.326)" fill="#F3D503"/>
<circle r="1.44203" transform="matrix(4.37114e-08 1 1 -4.37114e-08 1713.16 740.935)" fill="#F3D503"/>
<circle r="1.44203" transform="matrix(4.37114e-08 1 1 -4.37114e-08 1713.16 795.732)" fill="#F3D503"/>
<circle r="1.44203" transform="matrix(4.37114e-08 1 1 -4.37114e-08 1767.96 1069.72)" fill="#F3D503"/>
<circle r="1.44203" transform="matrix(4.37114e-08 1 1 -4.37114e-08 1767.96 960.123)" fill="#F3D503"/>
<circle r="1.44203" transform="matrix(4.37114e-08 1 1 -4.37114e-08 1767.96 1014.92)" fill="#F3D503"/>
<circle r="1.44203" transform="matrix(4.37114e-08 1 1 -4.37114e-08 1767.96 850.529)" fill="#F3D503"/>
<circle r="1.44203" transform="matrix(4.37114e-08 1 1 -4.37114e-08 1767.96 905.326)" fill="#F3D503"/>
<circle r="1.44203" transform="matrix(4.37114e-08 1 1 -4.37114e-08 1767.96 740.935)" fill="#F3D503"/>
<circle r="1.44203" transform="matrix(4.37114e-08 1 1 -4.37114e-08 1767.96 795.732)" fill="#F3D503"/>
<circle r="1.44203" transform="matrix(4.37114e-08 1 1 -4.37114e-08 1822.76 1069.72)" fill="#F3D503"/>
<circle r="1.44203" transform="matrix(4.37114e-08 1 1 -4.37114e-08 1822.76 960.123)" fill="#F3D503"/>
<circle r="1.44203" transform="matrix(4.37114e-08 1 1 -4.37114e-08 1822.76 1014.92)" fill="#F3D503"/>
<circle r="1.44203" transform="matrix(4.37114e-08 1 1 -4.37114e-08 1822.76 850.529)" fill="#F3D503"/>
<circle r="1.44203" transform="matrix(4.37114e-08 1 1 -4.37114e-08 1822.76 905.326)" fill="#F3D503"/>
<circle r="1.44203" transform="matrix(4.37114e-08 1 1 -4.37114e-08 1822.76 740.935)" fill="#F3D503"/>
<circle r="1.44203" transform="matrix(4.37114e-08 1 1 -4.37114e-08 1822.76 795.732)" fill="#F3D503"/>
<circle r="1.44203" transform="matrix(4.37114e-08 1 1 -4.37114e-08 1877.55 1069.72)" fill="#F3D503"/>
<circle r="1.44203" transform="matrix(4.37114e-08 1 1 -4.37114e-08 1877.55 960.123)" fill="#F3D503"/>
<circle r="1.44203" transform="matrix(4.37114e-08 1 1 -4.37114e-08 1877.55 1014.92)" fill="#F3D503"/>
<circle r="1.44203" transform="matrix(4.37114e-08 1 1 -4.37114e-08 1877.55 850.529)" fill="#F3D503"/>
<circle r="1.44203" transform="matrix(4.37114e-08 1 1 -4.37114e-08 1877.55 905.326)" fill="#F3D503"/>
<circle r="1.44203" transform="matrix(4.37114e-08 1 1 -4.37114e-08 1877.55 740.935)" fill="#F3D503"/>
<circle r="1.44203" transform="matrix(4.37114e-08 1 1 -4.37114e-08 1877.55 795.732)" fill="#F3D503"/>
<circle r="1.44203" transform="matrix(4.37114e-08 1 1 -4.37114e-08 1493.97 1069.72)" fill="#F3D503"/>
<circle r="1.44203" transform="matrix(4.37114e-08 1 1 -4.37114e-08 1493.97 960.123)" fill="#F3D503"/>
<circle r="1.44203" transform="matrix(4.37114e-08 1 1 -4.37114e-08 1493.97 1014.92)" fill="#F3D503"/>
<circle r="1.44203" transform="matrix(4.37114e-08 1 1 -4.37114e-08 1493.97 850.529)" fill="#F3D503"/>
<circle r="1.44203" transform="matrix(4.37114e-08 1 1 -4.37114e-08 1493.97 905.326)" fill="#F3D503"/>
<circle r="1.44203" transform="matrix(4.37114e-08 1 1 -4.37114e-08 1493.97 740.935)" fill="#F3D503"/>
<circle r="1.44203" transform="matrix(4.37114e-08 1 1 -4.37114e-08 1493.97 795.732)" fill="#F3D503"/>
<circle r="1.44203" transform="matrix(4.37114e-08 1 1 -4.37114e-08 1548.77 1069.72)" fill="#F3D503"/>
<circle r="1.44203" transform="matrix(4.37114e-08 1 1 -4.37114e-08 1548.77 960.123)" fill="#F3D503"/>
<circle r="1.44203" transform="matrix(4.37114e-08 1 1 -4.37114e-08 1548.77 1014.92)" fill="#F3D503"/>
<circle r="1.44203" transform="matrix(4.37114e-08 1 1 -4.37114e-08 1548.77 850.529)" fill="#F3D503"/>
<circle r="1.44203" transform="matrix(4.37114e-08 1 1 -4.37114e-08 1548.77 905.326)" fill="#F3D503"/>
<circle r="1.44203" transform="matrix(4.37114e-08 1 1 -4.37114e-08 1548.77 740.935)" fill="#F3D503"/>
<circle r="1.44203" transform="matrix(4.37114e-08 1 1 -4.37114e-08 1548.77 795.732)" fill="#F3D503"/>
<circle r="1.44203" transform="matrix(4.37114e-08 1 1 -4.37114e-08 1603.57 1069.72)" fill="#F3D503"/>
<circle r="1.44203" transform="matrix(4.37114e-08 1 1 -4.37114e-08 1603.57 960.123)" fill="#F3D503"/>
<circle r="1.44203" transform="matrix(4.37114e-08 1 1 -4.37114e-08 1603.57 1014.92)" fill="#F3D503"/>
<circle r="1.44203" transform="matrix(4.37114e-08 1 1 -4.37114e-08 1603.57 850.529)" fill="#F3D503"/>
<circle r="1.44203" transform="matrix(4.37114e-08 1 1 -4.37114e-08 1603.57 905.326)" fill="#F3D503"/>
<circle r="1.44203" transform="matrix(4.37114e-08 1 1 -4.37114e-08 1603.57 740.935)" fill="#F3D503"/>
<circle r="1.44203" transform="matrix(4.37114e-08 1 1 -4.37114e-08 1603.57 795.732)" fill="#F3D503"/>
<circle r="1.44203" transform="matrix(4.37114e-08 1 1 -4.37114e-08 1658.36 1069.72)" fill="#F3D503"/>
<circle r="1.44203" transform="matrix(4.37114e-08 1 1 -4.37114e-08 1658.36 960.123)" fill="#F3D503"/>
<circle r="1.44203" transform="matrix(4.37114e-08 1 1 -4.37114e-08 1658.36 1014.92)" fill="#F3D503"/>
<circle r="1.44203" transform="matrix(4.37114e-08 1 1 -4.37114e-08 1658.36 850.529)" fill="#F3D503"/>
<circle r="1.44203" transform="matrix(4.37114e-08 1 1 -4.37114e-08 1658.36 905.326)" fill="#F3D503"/>
<circle r="1.44203" transform="matrix(4.37114e-08 1 1 -4.37114e-08 1658.36 740.935)" fill="#F3D503"/>
<circle r="1.44203" transform="matrix(4.37114e-08 1 1 -4.37114e-08 1658.36 795.732)" fill="#F3D503"/>
<circle r="1.44203" transform="matrix(4.37114e-08 1 1 -4.37114e-08 14.4508 192.964)" fill="#F3D503"/>
<circle r="1.44203" transform="matrix(4.37114e-08 1 1 -4.37114e-08 14.4508 247.761)" fill="#F3D503"/>
<circle r="1.44203" transform="matrix(4.37114e-08 1 1 -4.37114e-08 14.4508 83.3693)" fill="#F3D503"/>
<circle r="1.44203" transform="matrix(4.37114e-08 1 1 -4.37114e-08 14.4508 138.166)" fill="#F3D503"/>
<circle r="1.44203" transform="matrix(4.37114e-08 1 1 -4.37114e-08 14.4508 28.5722)" fill="#F3D503"/>
<circle r="1.44203" transform="matrix(4.37114e-08 1 1 -4.37114e-08 69.2487 192.964)" fill="#F3D503"/>
<circle r="1.44203" transform="matrix(4.37114e-08 1 1 -4.37114e-08 69.2487 247.761)" fill="#F3D503"/>
<circle r="1.44203" transform="matrix(4.37114e-08 1 1 -4.37114e-08 69.2477 83.3693)" fill="#F3D503"/>
<circle r="1.44203" transform="matrix(4.37114e-08 1 1 -4.37114e-08 69.2477 138.166)" fill="#F3D503"/>
<circle r="1.44203" transform="matrix(4.37114e-08 1 1 -4.37114e-08 69.2477 28.5722)" fill="#F3D503"/>
<circle r="1.44203" transform="matrix(4.37114e-08 1 1 -4.37114e-08 124.046 192.964)" fill="#F3D503"/>
<circle r="1.44203" transform="matrix(4.37114e-08 1 1 -4.37114e-08 124.046 247.761)" fill="#F3D503"/>
<circle r="1.44203" transform="matrix(4.37114e-08 1 1 -4.37114e-08 124.046 83.3693)" fill="#F3D503"/>
<circle r="1.44203" transform="matrix(4.37114e-08 1 1 -4.37114e-08 124.046 138.166)" fill="#F3D503"/>
<circle r="1.44203" transform="matrix(4.37114e-08 1 1 -4.37114e-08 124.046 28.5722)" fill="#F3D503"/>
<circle r="1.44203" transform="matrix(4.37114e-08 1 1 -4.37114e-08 14.4508 631.341)" fill="#F3D503"/>
<circle r="1.44203" transform="matrix(4.37114e-08 1 1 -4.37114e-08 14.4508 686.138)" fill="#F3D503"/>
<circle r="1.44203" transform="matrix(4.37114e-08 1 1 -4.37114e-08 14.4508 521.746)" fill="#F3D503"/>
<circle r="1.44203" transform="matrix(4.37114e-08 1 1 -4.37114e-08 14.4508 576.543)" fill="#F3D503"/>
<circle r="1.44203" transform="matrix(4.37114e-08 1 1 -4.37114e-08 14.4508 412.152)" fill="#F3D503"/>
<circle r="1.44203" transform="matrix(4.37114e-08 1 1 -4.37114e-08 14.4508 466.949)" fill="#F3D503"/>
<circle r="1.44203" transform="matrix(4.37114e-08 1 1 -4.37114e-08 14.4508 302.558)" fill="#F3D503"/>
<circle r="1.44203" transform="matrix(4.37114e-08 1 1 -4.37114e-08 14.4508 357.355)" fill="#F3D503"/>
<circle r="1.44203" transform="matrix(4.37114e-08 1 1 -4.37114e-08 69.2477 631.341)" fill="#F3D503"/>
<circle r="1.44203" transform="matrix(4.37114e-08 1 1 -4.37114e-08 69.2477 686.138)" fill="#F3D503"/>
<circle r="1.44203" transform="matrix(4.37114e-08 1 1 -4.37114e-08 69.2477 521.746)" fill="#F3D503"/>
<circle r="1.44203" transform="matrix(4.37114e-08 1 1 -4.37114e-08 69.2477 576.543)" fill="#F3D503"/>
<circle r="1.44203" transform="matrix(4.37114e-08 1 1 -4.37114e-08 69.2477 412.152)" fill="#F3D503"/>
<circle r="1.44203" transform="matrix(4.37114e-08 1 1 -4.37114e-08 69.2477 466.949)" fill="#F3D503"/>
<circle r="1.44203" transform="matrix(4.37114e-08 1 1 -4.37114e-08 69.2487 302.558)" fill="#F3D503"/>
<circle r="1.44203" transform="matrix(4.37114e-08 1 1 -4.37114e-08 69.2477 357.355)" fill="#F3D503"/>
<circle r="1.44203" transform="matrix(4.37114e-08 1 1 -4.37114e-08 124.046 631.341)" fill="#F3D503"/>
<circle r="1.44203" transform="matrix(4.37114e-08 1 1 -4.37114e-08 124.046 686.138)" fill="#F3D503"/>
<circle r="1.44203" transform="matrix(4.37114e-08 1 1 -4.37114e-08 124.046 521.746)" fill="#F3D503"/>
<circle r="1.44203" transform="matrix(4.37114e-08 1 1 -4.37114e-08 124.046 576.543)" fill="#F3D503"/>
<circle r="1.44203" transform="matrix(4.37114e-08 1 1 -4.37114e-08 124.046 412.152)" fill="#F3D503"/>
<circle r="1.44203" transform="matrix(4.37114e-08 1 1 -4.37114e-08 124.046 466.949)" fill="#F3D503"/>
<circle r="1.44203" transform="matrix(4.37114e-08 1 1 -4.37114e-08 124.046 302.558)" fill="#F3D503"/>
<circle r="1.44203" transform="matrix(4.37114e-08 1 1 -4.37114e-08 124.046 357.355)" fill="#F3D503"/>
<circle r="1.44203" transform="matrix(4.37114e-08 1 1 -4.37114e-08 14.4508 1069.72)" fill="#F3D503"/>
<circle r="1.44203" transform="matrix(4.37114e-08 1 1 -4.37114e-08 14.4508 960.123)" fill="#F3D503"/>
<circle r="1.44203" transform="matrix(4.37114e-08 1 1 -4.37114e-08 14.4508 1014.92)" fill="#F3D503"/>
<circle r="1.44203" transform="matrix(4.37114e-08 1 1 -4.37114e-08 14.4508 850.529)" fill="#F3D503"/>
<circle r="1.44203" transform="matrix(4.37114e-08 1 1 -4.37114e-08 14.4508 905.326)" fill="#F3D503"/>
<circle r="1.44203" transform="matrix(4.37114e-08 1 1 -4.37114e-08 14.4508 740.935)" fill="#F3D503"/>
<circle r="1.44203" transform="matrix(4.37114e-08 1 1 -4.37114e-08 14.4508 795.732)" fill="#F3D503"/>
<circle r="1.44203" transform="matrix(4.37114e-08 1 1 -4.37114e-08 69.2477 1069.72)" fill="#F3D503"/>
<circle r="1.44203" transform="matrix(4.37114e-08 1 1 -4.37114e-08 69.2477 960.123)" fill="#F3D503"/>
<circle r="1.44203" transform="matrix(4.37114e-08 1 1 -4.37114e-08 69.2477 1014.92)" fill="#F3D503"/>
<circle r="1.44203" transform="matrix(4.37114e-08 1 1 -4.37114e-08 69.2477 850.529)" fill="#F3D503"/>
<circle r="1.44203" transform="matrix(4.37114e-08 1 1 -4.37114e-08 69.2477 905.326)" fill="#F3D503"/>
<circle r="1.44203" transform="matrix(4.37114e-08 1 1 -4.37114e-08 69.2477 740.935)" fill="#F3D503"/>
<circle r="1.44203" transform="matrix(4.37114e-08 1 1 -4.37114e-08 69.2477 795.732)" fill="#F3D503"/>
<circle r="1.44203" transform="matrix(4.37114e-08 1 1 -4.37114e-08 124.046 1069.72)" fill="#F3D503"/>
<circle r="1.44203" transform="matrix(4.37114e-08 1 1 -4.37114e-08 124.046 960.123)" fill="#F3D503"/>
<circle r="1.44203" transform="matrix(4.37114e-08 1 1 -4.37114e-08 124.046 1014.92)" fill="#F3D503"/>
<circle r="1.44203" transform="matrix(4.37114e-08 1 1 -4.37114e-08 124.046 850.529)" fill="#F3D503"/>
<circle r="1.44203" transform="matrix(4.37114e-08 1 1 -4.37114e-08 124.046 905.326)" fill="#F3D503"/>
<circle r="1.44203" transform="matrix(4.37114e-08 1 1 -4.37114e-08 124.046 740.935)" fill="#F3D503"/>
<circle r="1.44203" transform="matrix(4.37114e-08 1 1 -4.37114e-08 124.046 795.732)" fill="#F3D503"/>
</g>
</g>
<defs>
<linearGradient id="paint0_linear_34_4301" x1="-472.988" y1="577.359" x2="1941.27" y2="595.87" gradientUnits="userSpaceOnUse">
<stop offset="0.375" stop-color="#121212"/>
<stop offset="0.755208" stop-color="#282828"/>
</linearGradient>
</defs>
</svg>
