<svg width="36" height="36" viewBox="0 0 36 36" fill="none" xmlns="http://www.w3.org/2000/svg">
<g clip-path="url(#clip0_15_4235)">
<path d="M32.9092 0.359375H3.08398C1.65527 0.359375 0.5 1.4873 0.5 2.88184V32.8301C0.5 34.2246 1.65527 35.3594 3.08398 35.3594H32.9092C34.3379 35.3594 35.5 34.2246 35.5 32.8369V2.88184C35.5 1.4873 34.3379 0.359375 32.9092 0.359375ZM10.8838 30.1846H5.68848V13.4775H10.8838V30.1846ZM8.28613 11.2012C6.61816 11.2012 5.27148 9.85449 5.27148 8.19336C5.27148 6.53223 6.61816 5.18555 8.28613 5.18555C9.94727 5.18555 11.2939 6.53223 11.2939 8.19336C11.2939 9.84766 9.94727 11.2012 8.28613 11.2012ZM30.3252 30.1846H25.1367V22.0635C25.1367 20.1289 25.1025 17.6338 22.4365 17.6338C19.7363 17.6338 19.3262 19.7461 19.3262 21.9268V30.1846H14.1445V13.4775H19.1211V15.7607H19.1895C19.8799 14.4482 21.5752 13.0605 24.0977 13.0605C29.3545 13.0605 30.3252 16.5195 30.3252 21.0176V30.1846Z" fill="white"/>
</g>
<defs>
<clipPath id="clip0_15_4235">
<rect width="35" height="35" fill="white" transform="translate(0.5 0.359375)"/>
</clipPath>
</defs>
</svg>
