<svg width="30" height="30" viewBox="0 0 30 30" fill="none" xmlns="http://www.w3.org/2000/svg">
<path d="M13.75 25.9375C7.025 25.9375 1.5625 20.475 1.5625 13.75C1.5625 7.025 7.025 1.5625 13.75 1.5625C20.475 1.5625 25.9375 7.025 25.9375 13.75C25.9375 20.475 20.475 25.9375 13.75 25.9375ZM13.75 3.4375C8.0625 3.4375 3.4375 8.0625 3.4375 13.75C3.4375 19.4375 8.0625 24.0625 13.75 24.0625C19.4375 24.0625 24.0625 19.4375 24.0625 13.75C24.0625 8.0625 19.4375 3.4375 13.75 3.4375Z" fill="#747474"/>
<path d="M25.2004 28.4875C25.1004 28.4875 25.0004 28.475 24.9129 28.4625C24.3254 28.3875 23.2629 27.9875 22.6629 26.2C22.3504 25.2625 22.4629 24.325 22.9754 23.6125C23.4879 22.9 24.3504 22.5 25.3379 22.5C26.6129 22.5 27.6129 22.9875 28.0629 23.85C28.5129 24.7125 28.3879 25.8125 27.6754 26.875C26.7879 28.2125 25.8254 28.4875 25.2004 28.4875ZM24.4504 25.6125C24.6629 26.2625 24.9629 26.5875 25.1629 26.6125C25.3629 26.6375 25.7379 26.4 26.1254 25.8375C26.4879 25.3 26.5129 24.9125 26.4254 24.7375C26.3379 24.5625 25.9879 24.375 25.3379 24.375C24.9504 24.375 24.6629 24.5 24.5004 24.7125C24.3504 24.925 24.3254 25.25 24.4504 25.6125Z" fill="#747474"/>
</svg>
