<svg width="36" height="36" viewBox="0 0 36 36" fill="none" xmlns="http://www.w3.org/2000/svg">
<g clip-path="url(#clip0_15_4237)">
<path d="M11.5106 32.0782C24.7149 32.0782 31.9392 21.1359 31.9392 11.6497C31.9392 11.3421 31.9323 11.0276 31.9187 10.72C33.324 9.70368 34.5368 8.44484 35.5 7.00261C34.1912 7.58492 32.8016 7.96523 31.3786 8.13054C32.8769 7.23246 33.9987 5.82161 34.5361 4.15954C33.1266 4.99486 31.5852 5.58411 29.9779 5.90202C28.895 4.75133 27.4631 3.98943 25.9037 3.73412C24.3443 3.47882 22.7442 3.74433 21.3509 4.48961C19.9575 5.23488 18.8485 6.41841 18.1952 7.85721C17.5419 9.29601 17.3808 10.9099 17.7368 12.4495C14.8828 12.3063 12.0907 11.5649 9.54164 10.2734C6.99254 8.98185 4.7433 7.16906 2.93975 4.95251C2.02308 6.53295 1.74258 8.40312 2.15525 10.1829C2.56792 11.9627 3.6428 13.5187 5.16143 14.5344C4.02133 14.4983 2.90621 14.1913 1.9082 13.6389V13.7278C1.90718 15.3864 2.48056 16.9941 3.53087 18.2777C4.58118 19.5613 6.0436 20.4415 7.66953 20.7688C6.61341 21.0578 5.50497 21.0999 4.42998 20.8919C4.88879 22.3182 5.78146 23.5658 6.98342 24.4604C8.18537 25.355 9.63663 25.852 11.1347 25.8821C8.59145 27.8798 5.44984 28.9634 2.21582 28.9583C1.64229 28.9574 1.06933 28.9222 0.5 28.853C3.78542 30.9608 7.60723 32.0802 11.5106 32.0782Z" fill="white"/>
</g>
<defs>
<clipPath id="clip0_15_4237">
<rect width="35" height="35" fill="white" transform="translate(0.5 0.359375)"/>
</clipPath>
</defs>
</svg>
